<svg xmlns="http://www.w3.org/2000/svg" width="20" height="20" viewBox="0 0 20 20" fill="none">
  <path d="M10.0013 1.6665C5.40964 1.6665 1.66797 5.40817 1.66797 9.99984C1.66797 14.5915 5.40964 18.3332 10.0013 18.3332C14.593 18.3332 18.3346 14.5915 18.3346 9.99984C18.3346 5.40817 14.593 1.6665 10.0013 1.6665ZM13.3346 10.6248H10.6263V13.3332C10.6263 13.6748 10.343 13.9582 10.0013 13.9582C9.65964 13.9582 9.3763 13.6748 9.3763 13.3332V10.6248H6.66797C6.3263 10.6248 6.04297 10.3415 6.04297 9.99984C6.04297 9.65817 6.3263 9.37484 6.66797 9.37484H9.3763V6.6665C9.3763 6.32484 9.65964 6.0415 10.0013 6.0415C10.343 6.0415 10.6263 6.32484 10.6263 6.6665V9.37484H13.3346C13.6763 9.37484 13.9596 9.65817 13.9596 9.99984C13.9596 10.3415 13.6763 10.6248 13.3346 10.6248Z" fill="currentColor"/>
</svg>
