<svg xmlns="http://www.w3.org/2000/svg" width="18" height="12" viewBox="0 0 18 12" fill="none">
<path fill-rule="evenodd" clip-rule="evenodd" d="M14.0531 7.06633C14.8146 6.93293 15.6829 7.06012 16.3141 7.47897L16.3148 7.47942C16.7462 7.76705 17.0117 8.18383 17.0117 8.64848C17.0117 9.11301 16.7464 9.5297 16.3151 9.81732C15.6885 10.2368 14.8305 10.3636 14.0707 10.2361C13.8661 10.2017 13.7281 10.008 13.7625 9.80342C13.7968 9.59881 13.9905 9.46079 14.1951 9.49514C14.8077 9.59798 15.4621 9.4844 15.8973 9.19287L15.898 9.19242C16.1728 9.00922 16.2604 8.80492 16.2604 8.64848C16.2604 8.49211 16.1729 8.28792 15.8984 8.10478C15.4577 7.81255 14.7935 7.69939 14.1827 7.80638C13.9784 7.84218 13.7837 7.70554 13.7479 7.50118C13.7121 7.29682 13.8487 7.10213 14.0531 7.06633Z" fill="currentColor"/>
<path fill-rule="evenodd" clip-rule="evenodd" d="M2.10165 8.10478C2.5423 7.81255 3.20652 7.69939 3.81728 7.80638C4.02163 7.84218 4.21632 7.70554 4.25212 7.50118C4.28792 7.29682 4.15128 7.10213 3.94692 7.06633C3.18543 6.93293 2.31714 7.06012 1.68591 7.47897L1.68591 7.47897L1.68524 7.47942C1.25379 7.76705 0.988281 8.18383 0.988281 8.64848C0.988281 9.113 1.25364 9.52968 1.68488 9.81731C2.31146 10.2368 3.16955 10.3636 3.92927 10.2361C4.13387 10.2017 4.2719 10.008 4.23755 9.80342C4.20319 9.59881 4.00948 9.46079 3.80488 9.49514C3.19232 9.59798 2.53792 9.4844 2.10267 9.19287L2.10199 9.19242C1.82721 9.00922 1.7396 8.80492 1.7396 8.64848C1.7396 8.49211 1.82713 8.28791 2.10165 8.10478Z" fill="currentColor"/>
<path fill-rule="evenodd" clip-rule="evenodd" d="M8.96337 6.32812C9.92903 6.32812 10.9138 6.57045 11.6748 7.07865C12.3592 7.53402 12.7512 8.17242 12.7512 8.85943C12.7512 9.54629 12.3593 10.1858 11.6755 10.6436L11.6754 10.6436C10.912 11.1544 9.92584 11.3983 8.95961 11.3983C7.99359 11.3983 7.00769 11.1545 6.24432 10.6439C5.56003 10.1886 5.16797 9.55018 5.16797 8.86319C5.16797 8.17633 5.55988 7.53686 6.24375 7.07907L6.24513 7.07815C7.01068 6.57055 7.99745 6.32812 8.96337 6.32812ZM6.66101 7.70386C6.13325 8.05739 5.91928 8.4846 5.91928 8.86319C5.91928 9.2417 6.13316 9.66759 6.6608 10.0186L6.66162 10.0192C7.27559 10.43 8.10766 10.6469 8.95961 10.6469C9.81156 10.6469 10.6436 10.43 11.2576 10.0192C11.7858 9.66555 11.9999 9.23817 11.9999 8.85943C11.9999 8.48092 11.7861 8.05503 11.2584 7.704L11.2579 7.70363C10.6466 7.29536 9.81576 7.07944 8.96337 7.07944C8.11141 7.07944 7.27781 7.29515 6.66101 7.70386Z" fill="currentColor"/>
<path fill-rule="evenodd" clip-rule="evenodd" d="M0.433594 3.39194C0.433594 3.21 0.581089 3.0625 0.763034 3.0625H17.2351C17.417 3.0625 17.5645 3.21 17.5645 3.39194C17.5645 3.57389 17.417 3.72138 17.2351 3.72138H0.763034C0.581089 3.72138 0.433594 3.57389 0.433594 3.39194Z" fill="currentColor"/>
<path fill-rule="evenodd" clip-rule="evenodd" d="M7.14611 2.66841C7.40841 1.96849 8.08258 1.47007 8.87717 1.47007C9.66821 1.47007 10.3442 1.96872 10.6076 2.66841H11.3947C11.1057 1.5478 10.0874 0.71875 8.87717 0.71875C7.66229 0.71875 6.64724 1.5481 6.35938 2.66841H7.14611ZM7.20921 4.11795H6.40231C6.72887 5.13355 7.66158 5.87506 8.7794 5.91263C8.79495 5.91316 8.81053 5.91271 8.82603 5.9113C8.85968 5.90824 8.89578 5.90857 8.91993 5.91098C8.93654 5.91264 8.95324 5.91319 8.96993 5.91263C10.0883 5.87504 11.0205 5.13319 11.3496 4.11795H10.542C10.2554 4.71334 9.66177 5.12964 8.96583 5.16091C8.90662 5.15662 8.84386 5.15682 8.78445 5.16095C8.08768 5.13001 7.49397 4.71337 7.20921 4.11795Z" fill="currentColor"/>
<path fill-rule="evenodd" clip-rule="evenodd" d="M13.1404 4.11719C13.0086 4.35614 12.9336 4.63122 12.9336 4.92438C12.9336 5.82798 13.6448 6.5597 14.5378 6.59206C14.5583 6.5928 14.5787 6.59187 14.599 6.58928C14.6193 6.59187 14.6397 6.5928 14.6602 6.59206C15.5537 6.55968 16.263 5.82811 16.2694 4.92707L16.2694 4.92438C16.2694 4.63203 16.194 4.35669 16.0613 4.11719H15.0363C15.3233 4.27209 15.5176 4.57547 15.5181 4.92305C15.5139 5.41474 15.1356 5.80899 14.6595 5.8399C14.6195 5.83634 14.5785 5.83634 14.5385 5.8399C14.0616 5.80897 13.6849 5.4142 13.6849 4.92438C13.6849 4.57406 13.8783 4.27161 14.1648 4.11719H13.1404Z" fill="currentColor"/>
<path fill-rule="evenodd" clip-rule="evenodd" d="M1.93856 4.11719C1.80589 4.35669 1.73047 4.63203 1.73047 4.92438L1.73048 4.92707C1.73691 5.82811 2.44618 6.55968 3.33971 6.59206C3.36015 6.5928 3.38062 6.59187 3.40089 6.58928C3.42117 6.59187 3.44163 6.5928 3.46208 6.59206C4.35514 6.5597 5.06631 5.82798 5.06631 4.92438C5.06631 4.63122 4.99135 4.35614 4.85948 4.11719H3.83513C4.12165 4.27161 4.31499 4.57406 4.31499 4.92438C4.31499 5.4142 3.93827 5.80897 3.46138 5.8399C3.42138 5.83634 3.38041 5.83634 3.34041 5.8399C2.86434 5.80899 2.48598 5.41474 2.48179 4.92304C2.48228 4.57547 2.67663 4.27209 2.96358 4.11719H1.93856Z" fill="currentColor"/>
</svg>