<svg width="19" height="19" viewBox="0 0 19 19" fill="none" xmlns="http://www.w3.org/2000/svg">
<path d="M16.832 14.75V17H1.83203V14.75C1.83203 14.3375 2.16953 14 2.58203 14H16.082C16.4945 14 16.832 14.3375 16.832 14.75Z" fill="#1A1A1A"/>
<path d="M5.58203 8.75H4.08203V14H5.58203V8.75Z" fill="#1A1A1A"/>
<path d="M8.58203 8.75H7.08203V14H8.58203V8.75Z" fill="#1A1A1A"/>
<path d="M11.582 8.75H10.082V14H11.582V8.75Z" fill="#1A1A1A"/>
<path d="M14.582 8.75H13.082V14H14.582V8.75Z" fill="#1A1A1A"/>
<path d="M17.582 17.5635H1.08203C0.774531 17.5635 0.519531 17.3085 0.519531 17.001C0.519531 16.6935 0.774531 16.4385 1.08203 16.4385H17.582C17.8895 16.4385 18.1445 16.6935 18.1445 17.001C18.1445 17.3085 17.8895 17.5635 17.582 17.5635Z" fill="#1A1A1A"/>
<path d="M16.3595 4.81238L9.60953 2.11238C9.45953 2.05238 9.20453 2.05238 9.05453 2.11238L2.30453 4.81238C2.04203 4.91738 1.83203 5.22488 1.83203 5.50988V7.99988C1.83203 8.41238 2.16953 8.74988 2.58203 8.74988H16.082C16.4945 8.74988 16.832 8.41238 16.832 7.99988V5.50988C16.832 5.22488 16.622 4.91738 16.3595 4.81238ZM9.33203 6.87488C8.70953 6.87488 8.20703 6.37238 8.20703 5.74988C8.20703 5.12738 8.70953 4.62488 9.33203 4.62488C9.95453 4.62488 10.457 5.12738 10.457 5.74988C10.457 6.37238 9.95453 6.87488 9.33203 6.87488Z" fill="#1A1A1A"/>
</svg>
