<svg xmlns="http://www.w3.org/2000/svg" width="18" height="18" viewBox="0 0 18 18" fill="none">
  <path d="M9 4.82996V7.32746" stroke="currentColor" stroke-width="1.125" stroke-miterlimit="10" stroke-linecap="round"/>
  <path d="M9.01517 1.5C6.25517 1.5 4.02017 3.735 4.02017 6.495V8.07C4.02017 8.58 3.81017 9.345 3.54767 9.78L2.59517 11.37C2.01017 12.3525 2.41517 13.4475 3.49517 13.8075C7.08017 15 10.9577 15 14.5427 13.8075C15.5552 13.47 15.9902 12.285 15.4427 11.37L14.4902 9.78C14.2277 9.345 14.0177 8.5725 14.0177 8.07V6.495C14.0102 3.75 11.7602 1.5 9.01517 1.5Z" stroke="currentColor" stroke-width="1.125" stroke-miterlimit="10" stroke-linecap="round"/>
  <path d="M11.4974 14.115C11.4974 15.4875 10.3724 16.6125 8.99994 16.6125C8.31744 16.6125 7.68744 16.3275 7.23744 15.8775C6.78744 15.4275 6.50244 14.7975 6.50244 14.115" stroke="currentColor" stroke-width="1.125" stroke-miterlimit="10"/>
</svg>
