<svg xmlns="http://www.w3.org/2000/svg" width="18" height="19" viewBox="0 0 18 19" fill="none">
  <path d="M9.3975 15.3859H4.6575C2.2875 15.3859 1.5 13.8109 1.5 12.2284V5.91336C1.5 3.54336 2.2875 2.75586 4.6575 2.75586H9.3975C11.7675 2.75586 12.555 3.54336 12.555 5.91336V12.2284C12.555 14.5984 11.76 15.3859 9.3975 15.3859Z" fill="currentColor" stroke="currentColor" stroke-width="1.5" stroke-linecap="round" stroke-linejoin="round"/>
  <path d="M14.6402 12.8959L12.5552 11.4334V6.7009L14.6402 5.2384C15.6602 4.5259 16.5002 4.9609 16.5002 6.2134V11.9284C16.5002 13.1809 15.6602 13.6159 14.6402 12.8959Z" fill="transparent" stroke="currentColor" stroke-width="1.5" stroke-linecap="round" stroke-linejoin="round"/>
  <path d="M8.625 8.3208C9.24632 8.3208 9.75 7.81712 9.75 7.1958C9.75 6.57448 9.24632 6.0708 8.625 6.0708C8.00368 6.0708 7.5 6.57448 7.5 7.1958C7.5 7.81712 8.00368 8.3208 8.625 8.3208Z" stroke="#2667FF" stroke-width="1.5" stroke-linecap="round" stroke-linejoin="round"/>
</svg>
