<svg xmlns="http://www.w3.org/2000/svg" width="19" height="18" viewBox="0 0 19 18" fill="none">
  <g clip-path="url(#clip0_9531_28044)">
    <path fill-rule="evenodd" clip-rule="evenodd" d="M7.12 3C6.72341 3.00012 6.33389 3.0989 5.99092 3.28633C5.64795 3.47376 5.36371 3.74318 5.167 4.06729L3.67225 6.52941H2.8C2.72044 6.52941 2.64413 6.55916 2.58787 6.61211C2.53161 6.66506 2.5 6.73688 2.5 6.81176V7.14706C2.49985 7.27311 2.54452 7.39558 2.62688 7.49497C2.70924 7.59436 2.82457 7.66496 2.9545 7.69553L2.9725 7.69906C2.65933 8.31083 2.54032 8.99464 2.62975 9.66847L3.1735 13.7633C3.21884 14.1048 3.39517 14.4189 3.66932 14.6467C3.94348 14.8744 4.29658 15.0001 4.66225 15H4.75C5.14783 15 5.52936 14.8513 5.81066 14.5865C6.09196 14.3217 6.25 13.9627 6.25 13.5882H13.75C13.75 13.9627 13.908 14.3217 14.1893 14.5865C14.4706 14.8513 14.8522 15 15.25 15H15.3377C15.7034 15.0001 16.0565 14.8744 16.3307 14.6467C16.6048 14.4189 16.7812 14.1048 16.8265 13.7633L17.3702 9.66918C17.4597 8.99534 17.3407 8.31153 17.0275 7.69976L17.0455 7.69553C17.1754 7.66496 17.2908 7.59436 17.3731 7.49497C17.4555 7.39558 17.5001 7.27311 17.5 7.14706V6.81176C17.5 6.73688 17.4684 6.66506 17.4121 6.61211C17.3559 6.55916 17.2796 6.52941 17.2 6.52941H16.3277L14.833 4.06729C14.6363 3.74318 14.352 3.47376 14.0091 3.28633C13.6661 3.0989 13.2766 3.00012 12.88 3H7.12075H7.12ZM14.8165 6.88518L13.531 4.76753C13.4654 4.65939 13.3705 4.56951 13.256 4.50703C13.1416 4.44455 13.0116 4.41168 12.8792 4.41176H7.12075C6.98842 4.41168 6.85843 4.44455 6.74396 4.50703C6.6295 4.56951 6.53463 4.65939 6.469 4.76753L5.1835 6.88518C5.11836 6.99251 5.0843 7.11407 5.08475 7.23768C5.08519 7.36129 5.12012 7.48263 5.18603 7.58955C5.25194 7.69647 5.34653 7.78522 5.46033 7.84693C5.57414 7.90864 5.70316 7.94114 5.8345 7.94118H14.1655C14.2968 7.94114 14.4259 7.90864 14.5397 7.84693C14.6535 7.78522 14.7481 7.69647 14.814 7.58955C14.8799 7.48263 14.9148 7.36129 14.9153 7.23768C14.9157 7.11407 14.8816 6.99251 14.8165 6.88518ZM4.75 10.7922V10.2981C4.74996 10.237 4.76681 10.1769 4.79888 10.1237C4.83096 10.0705 4.87716 10.0261 4.93296 9.99477C4.98877 9.96346 5.05226 9.94633 5.11721 9.94506C5.18217 9.94379 5.24636 9.95842 5.3035 9.98753L7.36 11.0322C7.63975 11.1748 7.5235 11.5751 7.2055 11.5631L5.47 11.4974C5.27659 11.4901 5.09367 11.4127 4.95948 11.2815C4.82529 11.1502 4.75023 10.9751 4.75 10.7929V10.7922ZM15.25 10.2981V10.7922C15.2502 10.9747 15.1753 11.1501 15.041 11.2816C14.9068 11.4132 14.7237 11.4908 14.53 11.4981L12.7945 11.5631C12.4765 11.5751 12.3595 11.1748 12.64 11.0322L14.6965 9.98753C14.7536 9.95842 14.8178 9.94379 14.8828 9.94506C14.9477 9.94633 15.0112 9.96346 15.067 9.99477C15.1228 10.0261 15.169 10.0705 15.2011 10.1237C15.2332 10.1769 15.25 10.237 15.25 10.2981Z" fill="currentColor"/>
  </g>
  <defs>
    <clipPath id="clip0_9531_28044">
      <rect width="18" height="18" fill="white" transform="translate(0.5)"/>
    </clipPath>
  </defs>
</svg>
