<svg xmlns="http://www.w3.org/2000/svg" width="18" height="18" viewBox="0 0 18 18" fill="none">
  <path d="M6.75 16.5001H11.25C15 16.5001 16.5 15.0001 16.5 11.2501V6.75012C16.5 3.00012 15 1.50012 11.25 1.50012H6.75C3 1.50012 1.5 3.00012 1.5 6.75012V11.2501C1.5 15.0001 3 16.5001 6.75 16.5001Z" stroke="currentColor" stroke-width="1.125" stroke-linecap="round" stroke-linejoin="round"/>
  <path d="M11.625 13.8749C12.45 13.8749 13.125 13.1999 13.125 12.3749V5.62488C13.125 4.79988 12.45 4.12488 11.625 4.12488C10.8 4.12488 10.125 4.79988 10.125 5.62488V12.3749C10.125 13.1999 10.7925 13.8749 11.625 13.8749Z" stroke="currentColor" stroke-width="1.125" stroke-linecap="round" stroke-linejoin="round"/>
  <path d="M6.375 13.8751C7.2 13.8751 7.875 13.2001 7.875 12.3751V9.75012C7.875 8.92512 7.2 8.25012 6.375 8.25012C5.55 8.25012 4.875 8.92512 4.875 9.75012V12.3751C4.875 13.2001 5.5425 13.8751 6.375 13.8751Z" stroke="currentColor" stroke-width="1.125" stroke-linecap="round" stroke-linejoin="round"/>
</svg>
