<svg xmlns="http://www.w3.org/2000/svg" width="18" height="18" viewBox="0 0 18 18" fill="none">
  <path d="M9 1.50012C4.8675 1.50012 1.5 4.86762 1.5 9.00012C1.5 13.1326 4.8675 16.5001 9 16.5001C13.1325 16.5001 16.5 13.1326 16.5 9.00012C16.5 4.86762 13.1325 1.50012 9 1.50012ZM12.585 7.27512L8.3325 11.5276C8.2275 11.6326 8.085 11.6926 7.935 11.6926C7.785 11.6926 7.6425 11.6326 7.5375 11.5276L5.415 9.40512C5.1975 9.18762 5.1975 8.82762 5.415 8.61012C5.6325 8.39262 5.9925 8.39262 6.21 8.61012L7.935 10.3351L11.79 6.48012C12.0075 6.26262 12.3675 6.26262 12.585 6.48012C12.8025 6.69762 12.8025 7.05012 12.585 7.27512Z" fill="currentColor"/>
</svg>
