<svg xmlns="http://www.w3.org/2000/svg" width="18" height="18" viewBox="0 0 18 18" fill="none">
  <path d="M7.5 3.375V13.5C7.5 14.31 7.16999 15.0525 6.64499 15.5925L6.61501 15.6225C6.54751 15.69 6.47251 15.7575 6.40501 15.81C6.18001 16.005 5.92499 16.155 5.66249 16.26C5.57999 16.2975 5.4975 16.3275 5.415 16.3575C5.1225 16.455 4.8075 16.5 4.5 16.5C4.2975 16.5 4.09501 16.4775 3.90001 16.44C3.80251 16.4175 3.705 16.395 3.6075 16.365C3.4875 16.3275 3.375 16.29 3.2625 16.2375C3.2625 16.23 3.2625 16.23 3.255 16.2375C3.045 16.1325 2.84251 16.0125 2.65501 15.87L2.6475 15.8625C2.55 15.7875 2.46001 15.7125 2.37751 15.6225C2.29501 15.5325 2.2125 15.4425 2.13 15.345C1.9875 15.1575 1.8675 14.955 1.7625 14.745C1.77 14.7375 1.77 14.7375 1.7625 14.7375C1.7625 14.7375 1.7625 14.73 1.755 14.7225C1.71 14.6175 1.67249 14.505 1.63499 14.3925C1.60499 14.295 1.58249 14.1975 1.55999 14.1C1.52249 13.905 1.5 13.7025 1.5 13.5V3.375C1.5 2.25 2.25 1.5 3.375 1.5H5.625C6.75 1.5 7.5 2.25 7.5 3.375Z" stroke="currentColor" stroke-width="1.125" stroke-linecap="round" stroke-linejoin="round"/>
  <path d="M16.5 12.375V14.625C16.5 15.75 15.75 16.5 14.625 16.5H4.5C4.8075 16.5 5.1225 16.455 5.415 16.3575C5.4975 16.3275 5.57999 16.2975 5.66249 16.26C5.92499 16.155 6.18001 16.005 6.40501 15.81C6.47251 15.7575 6.54751 15.69 6.61501 15.6225L6.64499 15.5925L11.745 10.5H14.625C15.75 10.5 16.5 11.25 16.5 12.375Z" stroke="currentColor" stroke-width="1.125" stroke-linecap="round" stroke-linejoin="round"/>
  <path d="M3.60922 16.3651C3.15922 16.2301 2.73173 15.9826 2.37923 15.6226C2.01923 15.2701 1.77172 14.8426 1.63672 14.3926C1.92922 15.3301 2.67172 16.0726 3.60922 16.3651Z" stroke="currentColor" stroke-width="1.125" stroke-linecap="round" stroke-linejoin="round"/>
  <path d="M13.777 8.46722L11.7445 10.4997L6.64453 15.5922C7.16953 15.0522 7.49954 14.3097 7.49954 13.4997V6.25472L9.53204 4.22223C10.327 3.42723 11.392 3.42723 12.187 4.22223L13.777 5.81222C14.572 6.60722 14.572 7.67222 13.777 8.46722Z" stroke="currentColor" stroke-width="1.125" stroke-linecap="round" stroke-linejoin="round"/>
  <path d="M4.5 14.25C4.91421 14.25 5.25 13.9142 5.25 13.5C5.25 13.0858 4.91421 12.75 4.5 12.75C4.08579 12.75 3.75 13.0858 3.75 13.5C3.75 13.9142 4.08579 14.25 4.5 14.25Z" stroke="currentColor" stroke-width="1.125" stroke-linecap="round" stroke-linejoin="round"/>
</svg>
