<svg width="43" height="15" viewBox="0 0 43 15" fill="none" xmlns="http://www.w3.org/2000/svg">
<g id="Group">
<g id="Group_2">
<path id="Vector" d="M14.4907 12.864V2.1416H18.2675C19.4247 2.1416 20.3387 2.3881 21.1308 2.8811C21.9229 3.3741 22.4708 3.99006 22.8364 4.79161C23.202 5.59259 23.3848 6.5171 23.3848 7.5031C23.3848 8.61263 23.202 9.53657 22.7754 10.3375C22.3489 11.1385 21.7401 11.7551 20.948 12.186C20.1559 12.6175 19.2424 12.864 18.2066 12.864H14.4907ZM21.6792 7.50253C21.6792 6.76303 21.5573 6.08502 21.2527 5.53053C21.0089 4.97605 20.5824 4.48306 20.0949 4.17508C19.6075 3.86709 18.9372 3.68208 18.2066 3.68208H16.1354V11.385H18.2066C18.9378 11.385 19.6075 11.2 20.0949 10.892C20.5824 10.522 21.0084 10.091 21.2527 9.47452C21.5573 8.92004 21.6792 8.24202 21.6792 7.50253Z" fill="currentColor"/>
<path id="Vector_2" d="M25.8214 1.83398H24.1768V3.49799H25.8214V1.83398Z" fill="currentColor"/>
<path id="Vector_3" d="M25.8214 4.97656H24.1768V12.8645H25.8214V4.97656Z" fill="currentColor"/>
<path id="Vector_4" d="M26.5528 8.98193C26.5528 8.24243 26.6747 7.56441 26.9793 6.94845C27.284 6.33249 27.7106 5.83949 28.1975 5.46946C28.6849 5.09942 29.3546 4.91498 30.0249 4.91498C30.6342 4.91498 31.1821 5.09999 31.6695 5.40798C32.157 5.71596 32.5226 6.08599 32.7658 6.57899V1.89551H34.4104V11.0154C34.4104 11.2004 34.4714 11.3234 34.5323 11.4469C34.5932 11.5084 34.7151 11.5704 34.8979 11.5704V12.9259C34.5932 12.9874 34.3495 12.9874 34.1667 12.9874C33.862 12.9874 33.6183 12.9259 33.3746 12.7409C33.1308 12.5559 33.0699 12.3714 33.009 12.0629V11.4469C32.7043 11.9399 32.2778 12.3094 31.7909 12.6179C31.3034 12.8644 30.7555 13.0494 30.2071 13.0494C29.6587 13.0494 29.1713 12.9259 28.7453 12.7415C28.3188 12.5564 27.8922 12.2485 27.5881 11.879C27.2835 11.509 26.9788 11.078 26.796 10.585C26.6741 10.0305 26.5522 9.53754 26.5522 8.98306L26.5528 8.98193ZM32.8273 10.0915V8.05798C32.7054 7.75 32.5226 7.44202 32.2789 7.19495C32.0352 6.94845 31.7914 6.76343 31.4867 6.57899C31.1821 6.45602 30.8774 6.33249 30.5727 6.33249C30.2071 6.33249 29.9025 6.39397 29.5984 6.57899C29.2937 6.70252 29.05 6.94902 28.8672 7.19495C28.6844 7.44145 28.5016 7.74943 28.3797 8.05798C28.2578 8.36596 28.1969 8.736 28.1969 9.04398C28.1969 9.41401 28.2578 9.72199 28.3797 10.03C28.5016 10.338 28.6844 10.6459 28.8672 10.8924C29.1109 11.1389 29.3546 11.3239 29.6593 11.4469C29.964 11.5704 30.2686 11.6319 30.6342 11.6319C30.878 11.6319 31.0608 11.5704 31.3045 11.5084C31.5482 11.4469 31.731 11.3234 31.9748 11.2004C32.1576 11.0769 32.3404 10.8924 32.5232 10.7074C32.6451 10.4609 32.7669 10.2759 32.8279 10.0915H32.8273Z" fill="currentColor"/>
<path id="Vector_5" d="M37.4562 1.83398H35.8115V3.49799H37.4562V1.83398Z" fill="currentColor"/>
<path id="Vector_6" d="M37.4562 4.97656H35.8115V12.864H37.4562V4.97656Z" fill="currentColor"/>
<path id="Vector_7" d="M43.0001 12.4944C42.8782 12.5558 42.6954 12.6179 42.4517 12.7409C42.2689 12.8023 42.0251 12.8644 41.7205 12.9259C41.4767 12.9873 41.1721 12.9874 40.9283 12.9874C40.5627 12.9874 40.2581 12.9259 40.0143 12.8023C39.7097 12.6788 39.4659 12.4944 39.3441 12.2479C39.1613 12.0014 39.1003 11.6319 39.1003 11.2004V6.2704H38.0645V4.97642H39.1003V1.83398H40.745V4.97642H42.4506V6.2704H40.745V10.6453C40.745 10.8918 40.8668 11.1383 40.9887 11.2613C41.1715 11.3848 41.3543 11.4463 41.5371 11.4463C41.7808 11.4463 41.9636 11.3848 42.2074 11.3228C42.4511 11.2613 42.573 11.1998 42.6948 11.1378L42.9995 12.4932L43.0001 12.4944Z" fill="currentColor"/>
</g>
<g id="Clip path group">
<mask id="mask0_10911_16778" style="mask-type:luminance" maskUnits="userSpaceOnUse" x="0" y="0" width="12" height="15">
<g id="clippath">
<path id="Vector_8" d="M5.65999 15C2.53939 15 0.000488281 12.4382 0.000488281 9.28954V5.71046C0.000488281 2.56177 2.53939 0 5.65999 0C8.78058 0 11.3195 2.56177 11.3195 5.71046V9.28954C11.333 10.7936 10.7553 12.2208 9.69233 13.303C8.61753 14.3971 7.18558 15 5.65999 15ZM5.65999 1.35091C3.27737 1.35091 1.33934 3.30639 1.33934 5.71046V9.28954C1.33934 11.6936 3.27737 13.6491 5.65999 13.6491C6.82562 13.6491 7.91961 13.1885 8.74109 12.3523C9.55071 11.528 9.99079 10.4429 9.98063 9.2958V5.71103C9.98063 3.30696 8.04261 1.35147 5.65999 1.35147V1.35091Z" fill="white"/>
</g>
</mask>
<g mask="url(#mask0_10911_16778)">
<g id="Group_3">
<rect id="Rectangle" x="-1.87793" y="-0.0722656" width="15.0642" height="15.1429" fill="currentColor"/>
</g>
</g>
</g>
</g>
</svg>
