<svg xmlns="http://www.w3.org/2000/svg" width="18" height="18" viewBox="0 0 18 18" fill="none">
  <path d="M1.55254 3.44991C2.15254 0.854912 6.06004 0.854912 6.65254 3.44991C7.00504 4.97241 6.03754 6.26241 5.19754 7.06491C4.58254 7.64991 3.61504 7.64241 3.00004 7.06491C2.16754 6.26241 1.20004 4.97241 1.55254 3.44991Z" stroke="currentColor" stroke-width="1.125"/>
  <path d="M11.3025 12.4499C11.9025 9.85491 15.8325 9.85491 16.4325 12.4499C16.785 13.9724 15.8175 15.2624 14.97 16.0649C14.355 16.6499 13.38 16.6424 12.765 16.0649C11.9175 15.2624 10.95 13.9724 11.3025 12.4499Z" stroke="currentColor" stroke-width="1.125"/>
  <path d="M9.00026 3.75H11.0103C12.3978 3.75 13.0428 5.4675 12.0003 6.3825L6.00776 11.625C4.96526 12.5325 5.61026 14.25 6.99026 14.25H9.00026" stroke="currentColor" stroke-width="1.125" stroke-linecap="round" stroke-linejoin="round"/>
  <path d="M4.11478 4.125H4.12345" stroke="currentColor" stroke-width="1.5" stroke-linecap="round" stroke-linejoin="round"/>
  <path d="M13.8648 13.125H13.8734" stroke="currentColor" stroke-width="1.5" stroke-linecap="round" stroke-linejoin="round"/>
</svg>
