<svg xmlns="http://www.w3.org/2000/svg" width="19" height="19" viewBox="0 0 19 19" fill="none">
  <path d="M13.082 3.125H5.58203C3.33203 3.125 1.83203 4.25 1.83203 6.875V12.125C1.83203 14.75 3.33203 15.875 5.58203 15.875H13.082C15.332 15.875 16.832 14.75 16.832 12.125V6.875C16.832 4.25 15.332 3.125 13.082 3.125ZM13.4345 7.6925L11.087 9.5675C10.592 9.965 9.96203 10.16 9.33203 10.16C8.70203 10.16 8.06453 9.965 7.57703 9.5675L5.22953 7.6925C4.98953 7.4975 4.95203 7.1375 5.13953 6.8975C5.33453 6.6575 5.68703 6.6125 5.92703 6.8075L8.27453 8.6825C8.84453 9.14 9.81203 9.14 10.382 8.6825L12.7295 6.8075C12.9695 6.6125 13.3295 6.65 13.517 6.8975C13.712 7.1375 13.6745 7.4975 13.4345 7.6925Z" fill="#4B5058"/>
</svg>