<svg xmlns="http://www.w3.org/2000/svg" width="18" height="18" viewBox="0 0 18 18" fill="none">
  <path d="M11.6849 8.99994C11.6849 10.4849 10.4849 11.6849 8.99994 11.6849C7.51494 11.6849 6.31494 10.4849 6.31494 8.99994C6.31494 7.51494 7.51494 6.31494 8.99994 6.31494C10.4849 6.31494 11.6849 7.51494 11.6849 8.99994Z" stroke="currentColor" stroke-width="1.125" stroke-linecap="round" stroke-linejoin="round"/>
  <path d="M8.99988 15.2025C11.6474 15.2025 14.1149 13.6425 15.8324 10.9425C16.5074 9.88504 16.5074 8.10754 15.8324 7.05004C14.1149 4.35004 11.6474 2.79004 8.99988 2.79004C6.35238 2.79004 3.88488 4.35004 2.16738 7.05004C1.49238 8.10754 1.49238 9.88504 2.16738 10.9425C3.88488 13.6425 6.35238 15.2025 8.99988 15.2025Z" stroke="currentColor" stroke-width="1.125" stroke-linecap="round" stroke-linejoin="round"/>
</svg>
