<svg xmlns="http://www.w3.org/2000/svg" width="14" height="18" viewBox="0 0 14 18" fill="none">
  <path d="M13.1418 8.59204V10.6933C13.1418 12.3855 12.4355 14.0009 11.1933 15.15L9.67621 16.5533C9.30222 16.8992 8.81152 17.0913 8.30208 17.0913H5.83965C5.3302 17.0913 4.83949 16.8992 4.46551 16.5532L2.94848 15.15C1.70626 14.0009 1 12.3855 1 10.6934V8.74384M12.8404 2.01515L11.8286 3.02688C12.3682 3.33042 13.3464 4.50426 13.3464 5.96128L13.3465 9.60383C13.3465 9.60383 12.1864 6.2847 10.3108 5.96128C9.01644 5.73808 8.58253 6.69743 7.27539 6.56824C5.83167 6.42555 4.24003 5.55652 4.24003 5.55652C4.24003 5.55652 3.381 6.81954 2.82354 7.78255C2.34679 8.60614 1.20463 9.60383 1.20463 9.60383C1.20463 9.60383 0.744245 6.70483 1.20458 4.54471C1.6529 1.50925 3.73403 2.52107 3.73403 2.52107C3.73403 2.52107 5.15838 1.07434 7.78139 1.00334C10.4044 0.932348 12.8404 2.01515 12.8404 2.01515Z" stroke="currentColor" stroke-width="1.13" stroke-linejoin="round"/>
</svg>
