<svg xmlns="http://www.w3.org/2000/svg" width="14" height="18" viewBox="0 0 14 18" fill="none">
  <path d="M11.8281 3.02712L12.84 2.0154C12.84 2.0154 10.4039 0.932592 7.78091 1.00359C5.15789 1.07459 3.73354 2.52132 3.73354 2.52132C3.73354 2.52132 1.65241 1.5095 1.20409 4.54495C0.743757 6.70508 1.20414 9.60407 1.20414 9.60407C1.20414 9.60407 2.3463 8.60638 2.82305 7.7828C3.38051 6.81979 4.23954 5.55677 4.23954 5.55677C4.23954 5.55677 5.83118 6.42579 7.2749 6.56848C8.58204 6.69767 9.01595 5.73832 10.3104 5.96153C12.1859 6.28495 13.346 9.60407 13.346 9.60407L13.346 5.96153C13.346 4.50451 12.3677 3.33066 11.8281 3.02712Z" fill="currentColor"/>
  <path d="M13.1413 8.59229V10.6936C13.1413 12.3858 12.435 14.0012 11.1928 15.1502L9.67572 16.5535C9.30174 16.8994 8.81104 17.0916 8.30159 17.0916H5.83916C5.32971 17.0916 4.839 16.8994 4.46502 16.5535L2.94799 15.1502C1.70577 14.0012 0.999512 12.3858 0.999512 10.6936V8.74408M12.84 2.0154L11.8281 3.02712C12.3677 3.33066 13.346 4.50451 13.346 5.96153L13.346 9.60407C13.346 9.60407 12.1859 6.28495 10.3104 5.96153C9.01595 5.73832 8.58204 6.69767 7.2749 6.56848C5.83118 6.42579 4.23954 5.55677 4.23954 5.55677C4.23954 5.55677 3.38051 6.81979 2.82305 7.7828C2.3463 8.60638 1.20414 9.60407 1.20414 9.60407C1.20414 9.60407 0.743757 6.70508 1.20409 4.54495C1.65241 1.5095 3.73354 2.52132 3.73354 2.52132C3.73354 2.52132 5.15789 1.07459 7.78091 1.00359C10.4039 0.932592 12.84 2.0154 12.84 2.0154Z" stroke="currentColor" stroke-width="1.3" stroke-linejoin="round"/>
</svg>
