<svg width="18" height="19" viewBox="0 0 18 19" fill="none" xmlns="http://www.w3.org/2000/svg">
<path d="M16.404 4.90625V6.08821C16.404 7.04008 16.0067 7.94874 15.3079 8.59509L14.4546 9.38443C14.2442 9.57902 13.9682 9.6871 13.6816 9.6871H12.2965C12.01 9.6871 11.7339 9.57902 11.5236 9.38443L10.6702 8.59509C9.97149 7.94874 9.57422 7.04008 9.57422 6.08824V4.99164" stroke="currentColor" stroke-width="0.78"/>
<path d="M15.5481 1.77293L16.1173 1.20384C16.1173 1.20384 14.747 0.594758 13.2716 0.634694C11.7961 0.674629 10.9949 1.48842 10.9949 1.48842C10.9949 1.48842 9.82429 0.919268 9.57211 2.62671C9.31317 3.84178 9.57214 5.47247 9.57214 5.47247C9.57214 5.47247 10.2146 4.91127 10.4828 4.448C10.7963 3.90631 11.2795 3.19586 11.2795 3.19586C11.2795 3.19586 12.1748 3.68468 12.9869 3.76495C13.7222 3.83761 13.9663 3.29798 14.6944 3.42353C15.7494 3.60546 16.402 5.47247 16.402 5.47247L16.4019 3.42353C16.4019 2.60396 15.8516 1.94367 15.5481 1.77293Z" stroke="currentColor" stroke-width="0.78" stroke-linejoin="round"/>
<path d="M8.40399 12.9062V14.0882C8.40399 15.0401 8.0067 15.9487 7.30794 16.5951L6.45458 17.3844C6.24422 17.579 5.9682 17.6871 5.68164 17.6871H4.29652C4.00995 17.6871 3.73393 17.579 3.52357 17.3844L2.67024 16.5951C1.97149 15.9487 1.57422 15.0401 1.57422 14.0882V12.9916" stroke="currentColor" stroke-width="0.78"/>
<path d="M7.5481 9.77293L8.11728 9.20384C8.11728 9.20384 6.74701 8.59476 5.27156 8.63469C3.79612 8.67463 2.99492 9.48842 2.99492 9.48842C2.99492 9.48842 1.82429 8.91927 1.57211 10.6267C1.31317 11.8418 1.57214 13.4725 1.57214 13.4725C1.57214 13.4725 2.2146 12.9113 2.48277 12.448C2.79635 11.9063 3.27955 11.1959 3.27955 11.1959C3.27955 11.1959 4.17484 11.6847 4.98694 11.7649C5.7222 11.8376 5.96628 11.298 6.69438 11.4235C7.7494 11.6055 8.40195 13.4725 8.40195 13.4725L8.40191 11.4235C8.40191 10.604 7.85165 9.94367 7.5481 9.77293Z" stroke="currentColor" stroke-width="0.78" stroke-linejoin="round"/>
<path d="M4.22656 6.07812L4.22656 2.31157L6.53789 2.31157" stroke="currentColor" stroke-width="1.12436" stroke-linecap="round" stroke-linejoin="round"/>
<path d="M4.22656 6.07812L5.52828 4.77641" stroke="currentColor" stroke-width="1.12436" stroke-linecap="round" stroke-linejoin="round"/>
<path d="M4.22656 6.07812L2.92484 4.77641" stroke="currentColor" stroke-width="1.12436" stroke-linecap="round" stroke-linejoin="round"/>
<path d="M14.2383 12.4297L14.2383 16.1962L11.927 16.1962" stroke="currentColor" stroke-width="1.12436" stroke-linecap="round" stroke-linejoin="round"/>
<path d="M14.2383 12.4297L12.9366 13.7314" stroke="currentColor" stroke-width="1.12436" stroke-linecap="round" stroke-linejoin="round"/>
<path d="M14.2383 12.4297L15.54 13.7314" stroke="currentColor" stroke-width="1.12436" stroke-linecap="round" stroke-linejoin="round"/>
</svg>