<svg width="18" height="18" viewBox="0 0 24 24" fill="none" xmlns="http://www.w3.org/2000/svg">
<path d="M17 21H7C3 21 2 20 2 16V8C2 4 3 3 7 3H17C21 3 22 4 22 8V16C22 20 21 21 17 21Z" stroke="currentColor" stroke-width="1.5" stroke-linecap="round" stroke-linejoin="round"/>
<path d="M18.7793 14.9414H5.22554" stroke="currentColor" stroke-width="1.5" stroke-linecap="round" stroke-linejoin="round"/>
<path d="M16.0664 17.6963H5.2234" stroke="currentColor" stroke-width="1.5" stroke-linecap="round" stroke-linejoin="round"/>
<path d="M16.9646 7.60928C16.9646 7.6148 16.969 7.61928 16.9746 7.61928H18.7693C18.7748 7.61928 18.7793 7.62376 18.7793 7.62928V9.97814C18.7793 9.98366 18.7748 9.98814 18.7693 9.98814H16.9746C16.969 9.98814 16.9646 9.99262 16.9646 9.99814V11.7937C16.9646 11.7992 16.9601 11.8037 16.9546 11.8037H14.6057C14.6002 11.8037 14.5957 11.7992 14.5957 11.7937V9.99814C14.5957 9.99262 14.5912 9.98814 14.5857 9.98814H12.7893C12.7838 9.98814 12.7793 9.98366 12.7793 9.97814V7.62928C12.7793 7.62376 12.7838 7.61928 12.7893 7.61928H14.5857C14.5912 7.61928 14.5957 7.6148 14.5957 7.60928V5.81371C14.5957 5.80819 14.6002 5.80371 14.6057 5.80371H16.9546C16.9601 5.80371 16.9646 5.80819 16.9646 5.81371V7.60928Z" stroke="currentColor" stroke-width="1.1"/>
</svg>
