<svg xmlns="http://www.w3.org/2000/svg" width="18" height="19" viewBox="0 0 18 19" fill="none">
  <path d="M3.75 6.5C4.99264 6.5 6 5.49264 6 4.25C6 3.00736 4.99264 2 3.75 2C2.50736 2 1.5 3.00736 1.5 4.25C1.5 5.49264 2.50736 6.5 3.75 6.5Z" stroke="currentColor" stroke-width="1.5" stroke-linecap="round" stroke-linejoin="round"/>
  <path d="M14.25 11.75C15.4926 11.75 16.5 10.7426 16.5 9.5C16.5 8.25736 15.4926 7.25 14.25 7.25C13.0074 7.25 12 8.25736 12 9.5C12 10.7426 13.0074 11.75 14.25 11.75Z" stroke="currentColor" stroke-width="1.5" stroke-linecap="round" stroke-linejoin="round"/>
  <path d="M3.75 17C4.99264 17 6 15.9926 6 14.75C6 13.5074 4.99264 12.5 3.75 12.5C2.50736 12.5 1.5 13.5074 1.5 14.75C1.5 15.9926 2.50736 17 3.75 17Z" stroke="currentColor" stroke-width="1.5" stroke-linecap="round" stroke-linejoin="round"/>
  <path d="M12 9.5H6.75C5.1 9.5 3.75 8.75 3.75 6.5V12.5" stroke="currentColor" stroke-width="1.5" stroke-linecap="round" stroke-linejoin="round"/>
</svg>
