<svg xmlns="http://www.w3.org/2000/svg" width="20" height="20" viewBox="0 0 20 20" fill="none">
  <path d="M15.5002 2.5H4.50016C2.47433 2.5 0.833496 3.98333 0.833496 5.80833V14.1917C0.833496 16.0167 2.47433 17.5 4.50016 17.5H15.5002C17.526 17.5 19.1668 16.0167 19.1668 14.1917V5.80833C19.1668 3.98333 17.526 2.5 15.5002 2.5ZM6.79183 5.975C7.956 5.975 8.90933 6.84167 8.90933 7.9C8.90933 8.95833 7.956 9.825 6.79183 9.825C5.62766 9.825 4.67433 8.95833 4.67433 7.9C4.67433 6.84167 5.62766 5.975 6.79183 5.975ZM10.3393 13.8833C10.2568 13.9667 10.1285 14.0167 10.0002 14.0167H3.5835C3.45516 14.0167 3.32683 13.9667 3.24433 13.8833C3.16183 13.8 3.116 13.6833 3.12516 13.5667C3.281 12.1667 4.50933 11.0583 6.04933 10.925C6.53516 10.8833 7.03933 10.8833 7.52516 10.925C9.06516 11.0583 10.3027 12.1667 10.4493 13.5667C10.4677 13.6833 10.4218 13.8 10.3393 13.8833ZM16.4168 13.9583H14.5835C14.2077 13.9583 13.896 13.675 13.896 13.3333C13.896 12.9917 14.2077 12.7083 14.5835 12.7083H16.4168C16.7927 12.7083 17.1043 12.9917 17.1043 13.3333C17.1043 13.675 16.7927 13.9583 16.4168 13.9583ZM16.4168 10.625H12.7502C12.3743 10.625 12.0627 10.3417 12.0627 10C12.0627 9.65833 12.3743 9.375 12.7502 9.375H16.4168C16.7927 9.375 17.1043 9.65833 17.1043 10C17.1043 10.3417 16.7927 10.625 16.4168 10.625ZM16.4168 7.29167H11.8335C11.4577 7.29167 11.146 7.00833 11.146 6.66667C11.146 6.325 11.4577 6.04167 11.8335 6.04167H16.4168C16.7927 6.04167 17.1043 6.325 17.1043 6.66667C17.1043 7.00833 16.7927 7.29167 16.4168 7.29167Z" fill="currentColor"/>
</svg>
