<svg xmlns="http://www.w3.org/2000/svg" width="16" height="16" viewBox="0 0 16 16" fill="none">
  <path d="M2.17001 10.8165L2.16984 10.8164L2.16899 10.8272C2.15358 11.0233 2.23005 11.2102 2.35975 11.3412C2.49545 11.4782 2.68693 11.5467 2.86797 11.5467H8.0013C8.18234 11.5467 8.37382 11.4782 8.50952 11.3412C8.63617 11.2133 8.72087 11.0213 8.69139 10.8114C8.55149 9.51214 7.41337 8.52595 6.05005 8.40791L6.04979 8.40789C5.64216 8.37293 5.21977 8.37293 4.81215 8.40789L4.81188 8.40791C3.4442 8.52632 2.31466 9.51697 2.17001 10.8165ZM3.6013 2.33333H12.4013C13.8708 2.33333 15.0013 3.40201 15.0013 4.64667V11.3533C15.0013 12.598 13.8708 13.6667 12.4013 13.6667H3.6013C2.13185 13.6667 1.0013 12.598 1.0013 11.3533V4.64667C1.0013 3.40201 2.13185 2.33333 3.6013 2.33333ZM7.46197 6.32C7.46197 5.26005 6.51945 4.44667 5.43464 4.44667C4.34982 4.44667 3.4073 5.26005 3.4073 6.32C3.4073 7.37995 4.34981 8.19333 5.43464 8.19333C6.51945 8.19333 7.46197 7.37995 7.46197 6.32ZM11.668 11.5H13.1346C13.5888 11.5 14.018 11.1533 14.018 10.6667C14.018 10.1801 13.5888 9.83333 13.1346 9.83333H11.668C11.2138 9.83333 10.7846 10.1801 10.7846 10.6667C10.7846 11.1533 11.2138 11.5 11.668 11.5ZM10.2013 8.83333H13.1346C13.5888 8.83333 14.018 8.48661 14.018 8C14.018 7.51339 13.5888 7.16667 13.1346 7.16667H10.2013C9.74715 7.16667 9.31797 7.51339 9.31797 8C9.31797 8.48661 9.74715 8.83333 10.2013 8.83333ZM9.46797 6.16667H13.1346C13.5888 6.16667 14.018 5.81995 14.018 5.33333C14.018 4.84672 13.5888 4.5 13.1346 4.5H9.46797C9.01381 4.5 8.58463 4.84672 8.58463 5.33333C8.58463 5.81995 9.01381 6.16667 9.46797 6.16667Z" stroke="#4B5058" stroke-width="0.666667"/>
</svg>
