<svg xmlns="http://www.w3.org/2000/svg" width="16" height="16" viewBox="0 0 16 16" fill="none">
  <path d="M5.51925 7.17834C6.26123 7.17834 6.86269 6.58232 6.86269 5.84699C6.86269 5.1117 6.26123 4.51562 5.51925 4.51562C4.77728 4.51562 4.17578 5.1117 4.17578 5.84699C4.17578 6.58232 4.77728 7.17834 5.51925 7.17834Z" stroke="currentColor" stroke-width="0.877775" stroke-linecap="round" stroke-linejoin="round"/>
  <path d="M8.11761 10.8877C8.01369 9.82112 7.16011 8.98258 6.08385 8.88696C5.71273 8.85018 5.33418 8.85018 4.95563 8.88696C3.87937 8.98994 3.02579 9.82112 2.92187 10.8877" stroke="currentColor" stroke-width="0.877775" stroke-linecap="round" stroke-linejoin="round"/>
  <path fill-rule="evenodd" clip-rule="evenodd" d="M15.0137 4.04297C15.0811 4.54469 15.082 5.20857 15.082 6.15527L15.082 9.24707C15.082 10.1938 15.0811 10.8577 15.0137 11.3594C14.948 11.8476 14.8271 12.1131 14.6367 12.3037C14.4461 12.4943 14.1799 12.616 13.6914 12.6816C13.3561 12.7267 12.9482 12.7421 12.4319 12.7473L12.4319 13.6653C12.9693 13.6598 13.4278 13.6428 13.8145 13.5908C14.4045 13.5114 14.8957 13.3425 15.2852 12.9531C15.6748 12.5635 15.8445 12.0718 15.9238 11.4814C16 10.9144 16 10.1931 16 9.29471L16 9.24707L16 6.15527L16 6.10831C16 5.20957 16 4.48813 15.9238 3.9209C15.8445 3.33054 15.6748 2.83885 15.2852 2.44922C14.8956 2.05973 14.4046 1.88993 13.8145 1.81055C13.4278 1.75857 12.9693 1.74205 12.4319 1.7368L12.4319 2.65505C12.9482 2.66028 13.3561 2.67564 13.6914 2.7207C14.1799 2.78639 14.4461 2.90804 14.6367 3.09863C14.8271 3.2892 14.948 3.55476 15.0137 4.04297ZM10.2789 2.65234L10.2789 1.73438L4.6582 1.73438L4.61131 1.73438C3.71255 1.73435 2.99107 1.73433 2.42383 1.81055C1.83346 1.88992 1.34177 2.05959 0.952146 2.44922C0.56252 2.83885 0.392842 3.33054 0.313474 3.9209C0.237248 4.48827 0.237272 5.20995 0.237301 6.109L0.237303 6.15527L0.237302 9.24707L0.237302 9.29508C0.237286 10.1933 0.237273 10.9145 0.313474 11.4814C0.39285 12.0718 0.56252 12.5635 0.952146 12.9531C1.34176 13.3427 1.8335 13.5115 2.42383 13.5908C2.99791 13.668 3.7299 13.668 4.64388 13.668L4.6582 13.668L10.2789 13.668L10.2789 12.75L4.6582 12.75C3.71152 12.75 3.04761 12.7491 2.5459 12.6816C2.05741 12.616 1.79215 12.4943 1.60156 12.3037C1.41097 12.1131 1.28932 11.8479 1.22363 11.3594C1.15617 10.8577 1.15528 10.1938 1.15527 9.24707L1.15527 6.15527C1.15526 5.20859 1.1562 4.54469 1.22363 4.04297C1.28931 3.55442 1.41097 3.28923 1.60156 3.09863C1.79215 2.90804 2.05735 2.78639 2.5459 2.7207C3.04761 2.65327 3.71151 2.65234 4.6582 2.65234L10.2789 2.65234Z" fill="currentColor"/>
  <path fill-rule="evenodd" clip-rule="evenodd" d="M13.4033 4.3291L13.3145 4.32031L12.432 4.32031L12.432 5.19727L13.3145 5.19727L13.4033 5.18848C13.6032 5.14749 13.7539 4.97082 13.7539 4.75879C13.7539 4.54676 13.6032 4.37009 13.4033 4.3291ZM10.279 5.19727L10.279 4.32031L9.60352 4.32031C9.36112 4.32031 9.16504 4.5164 9.16504 4.75879C9.16504 5.00118 9.36112 5.19727 9.60352 5.19727L10.279 5.19727Z" fill="currentColor"/>
  <path fill-rule="evenodd" clip-rule="evenodd" d="M13.4033 7.27441L13.3145 7.26562L12.432 7.26562L12.432 8.14258L13.3145 8.14258L13.4033 8.13379C13.6032 8.09278 13.7539 7.91611 13.7539 7.7041C13.7539 7.49209 13.6032 7.31542 13.4033 7.27441ZM10.279 8.13756L10.279 7.27065C10.0684 7.3027 9.90723 7.48438 9.90723 7.7041C9.90723 7.92383 10.0684 8.1055 10.279 8.13756Z" fill="currentColor"/>
  <path fill-rule="evenodd" clip-rule="evenodd" d="M13.4033 10.2119L13.3145 10.2031L12.4319 10.2031L12.4319 11.0801L13.3145 11.0801L13.4033 11.0713C13.6031 11.0302 13.7539 10.8536 13.7539 10.6416C13.7539 10.4296 13.6031 10.253 13.4033 10.2119Z" fill="currentColor"/>
  <path fill-rule="evenodd" clip-rule="evenodd" d="M11.357 -1.85439e-08C11.5913 -8.30238e-09 11.7812 0.217876 11.7812 0.486639L11.7812 15.05C11.7812 15.3188 11.5913 15.5366 11.357 15.5366C11.1227 15.5366 10.9328 15.3188 10.9328 15.05L10.9328 0.486639C10.9328 0.217876 11.1227 -2.87854e-08 11.357 -1.85439e-08Z" fill="currentColor"/>
</svg>