<svg xmlns="http://www.w3.org/2000/svg" width="12" height="11" viewBox="0 0 12 11" fill="none">
  <path d="M8.45398 0.163086H2.88428C1.34555 0.163086 0.09375 1.41488 0.09375 2.95361V8.04908C0.09375 9.58781 1.34555 10.8396 2.88428 10.8396H8.45398C9.99271 10.8396 11.2445 9.58781 11.2445 8.04908V2.95361C11.2445 1.41488 9.99271 0.163086 8.45398 0.163086ZM1.07816 2.95361C1.07816 1.95785 1.88852 1.1475 2.88428 1.1475H8.45398C9.44974 1.1475 10.2601 1.95785 10.2601 2.95361V8.04908C10.2601 9.04484 9.44974 9.8552 8.45398 9.8552H2.88428C1.88852 9.8552 1.07816 9.04484 1.07816 8.04908V2.95361Z" fill="white"/>
  <path d="M5.66988 8.0966C7.10078 8.0966 8.26554 6.93246 8.26554 5.50094C8.26554 4.06941 7.10141 2.90527 5.66988 2.90527C4.23836 2.90527 3.07422 4.06941 3.07422 5.50094C3.07422 6.93246 4.23836 8.0966 5.66988 8.0966ZM5.66988 3.89031C6.55844 3.89031 7.28114 4.61301 7.28114 5.50157C7.28114 6.39012 6.55844 7.11282 5.66988 7.11282C4.78133 7.11282 4.05863 6.39012 4.05863 5.50157C4.05863 4.61301 4.78133 3.89031 5.66988 3.89031Z" fill="white"/>
  <path d="M8.50433 3.32451C8.88979 3.32451 9.20397 3.01109 9.20397 2.62515C9.20397 2.2392 8.89043 1.92578 8.50433 1.92578C8.11823 1.92578 7.80469 2.2392 7.80469 2.62515C7.80469 3.01109 8.11823 3.32451 8.50433 3.32451Z" fill="white"/>
</svg>