<svg width="18" height="12" viewBox="0 0 18 12" fill="none" xmlns="http://www.w3.org/2000/svg">
<path d="M1.70021 9.17285C0.215164 7.24806 0.215164 4.74655 1.70021 2.82176" stroke="currentColor" stroke-width="0.907827" stroke-linecap="round" stroke-linejoin="round"/>
<path d="M9.00032 6.74502C9.89957 6.74502 10.6286 6.01603 10.6286 5.11677C10.6286 4.21752 9.89957 3.48853 9.00032 3.48853C8.10106 3.48853 7.37207 4.21752 7.37207 5.11677C7.37207 6.01603 8.10106 6.74502 9.00032 6.74502Z" stroke="currentColor" stroke-width="0.907827"/>
<path d="M4.62669 4.16701C5.65478 -0.35244 12.3505 -0.347221 13.3733 4.17222C13.9735 6.82335 12.3244 9.06742 10.8788 10.4556C9.82979 11.468 8.17023 11.468 7.11604 10.4556C5.67566 9.06742 4.02653 6.81813 4.62669 4.16701Z" stroke="currentColor" stroke-width="0.907827"/>
<path d="M16.3003 2.82178C17.7853 4.74657 17.7853 7.24808 16.3003 9.17287" stroke="currentColor" stroke-width="0.907827" stroke-linecap="round" stroke-linejoin="round"/>
</svg>
