<svg width="18" height="18" viewBox="0 0 18 18" fill="none" xmlns="http://www.w3.org/2000/svg">
<path d="M9.01465 4.11133C10.4734 4.06815 11.8037 4.65956 11.8594 4.68555L12.1895 4.83496L11.585 5.44629C11.9234 5.77333 12.2811 6.37707 12.2812 7.07422V9.05859L12.2832 9.05664V11.0557C12.2831 11.2612 12.1976 11.4579 12.0479 11.5986L10.0645 13.4551C9.98733 13.5266 9.88799 13.5654 9.78516 13.5654H7.72656C7.6216 13.5654 7.52321 13.5285 7.44824 13.457L5.46387 11.6016C5.31392 11.463 5.22854 11.2633 5.22852 11.0576V9.18164L5.21582 9.10645C5.20511 9.0393 4.96283 7.45995 5.21777 6.24707C5.30987 5.60843 5.5519 5.17319 5.92871 4.97168C6.25217 4.8006 6.58257 4.84995 6.77539 4.90625C7.05829 4.67228 7.82366 4.14381 9.01465 4.11133ZM7.18848 7.17676C7.02991 7.41722 6.75398 7.84569 6.55273 8.19629C6.33849 8.56882 5.91645 8.98527 5.72363 9.16504V11.0576C5.72366 11.1247 5.75153 11.1899 5.80078 11.2354L7.75879 13.0674H9.75098L11.709 11.2354C11.7582 11.1899 11.7861 11.1247 11.7861 11.0576V9.11719C11.6105 8.62987 11.043 7.44258 10.3467 7.32129C10.0618 7.27151 9.88155 7.35406 9.65234 7.45801C9.40818 7.56844 9.1317 7.69641 8.72266 7.65527C8.12711 7.59677 7.50124 7.32836 7.18848 7.17676ZM9.02734 4.61426C7.73548 4.64891 7.00684 5.37012 7.00684 5.37012L6.88281 5.49609L6.72168 5.41797C6.72106 5.41768 6.58657 5.35453 6.41992 5.35449C6.33637 5.35449 6.2439 5.37032 6.1582 5.41797C5.9334 5.53937 5.77673 5.85748 5.70605 6.33594V6.33789C5.54966 7.07861 5.59702 7.99089 5.64844 8.54102C5.81769 8.36342 6.01067 8.14219 6.12207 7.94727C6.42415 7.41882 6.87818 6.743 6.89746 6.71484L7.02344 6.52637L7.2207 6.63477C7.22927 6.6391 8.04978 7.08758 8.76953 7.15918C9.04804 7.18734 9.23303 7.10039 9.44727 7.00293C9.70428 6.88601 9.99593 6.75137 10.4307 6.82715C11.0132 6.92905 11.4695 7.46433 11.7822 7.97754V7.07422C11.7821 6.38345 11.3235 5.82274 11.0879 5.68848L10.8027 5.52637L11.3125 5.0127C10.8411 4.8481 9.95248 4.5905 9.02734 4.61426Z" fill="currentColor"/>
<rect x="2.02344" y="8.70312" width="0.265723" height="1.4416" rx="0.132862" transform="rotate(90 2.02344 8.70312)" fill="currentColor" stroke="currentColor" stroke-width="0.533065"/>
<rect x="8.70312" y="0.578125" width="0.265723" height="1.4416" rx="0.132862" fill="currentColor" stroke="currentColor" stroke-width="0.533065"/>
<rect x="17.1016" y="8.70312" width="0.265723" height="1.4416" rx="0.132862" transform="rotate(90 17.1016 8.70312)" fill="currentColor" stroke="currentColor" stroke-width="0.533065"/>
<rect x="8.70312" y="15.6562" width="0.265723" height="1.4416" rx="0.132862" fill="currentColor" stroke="currentColor" stroke-width="0.533065"/>
<rect x="2.28906" y="6.94531" width="0.265724" height="1.4416" rx="0.132862" transform="rotate(105 2.28906 6.94531)" fill="currentColor" stroke="currentColor" stroke-width="0.533065"/>
<rect x="10.8516" y="0.828125" width="0.265723" height="1.4416" rx="0.132862" transform="rotate(15 10.8516 0.828125)" fill="currentColor" stroke="currentColor" stroke-width="0.533065"/>
<rect x="16.8594" y="10.8516" width="0.265724" height="1.4416" rx="0.132862" transform="rotate(105 16.8594 10.8516)" fill="currentColor" stroke="currentColor" stroke-width="0.533065"/>
<rect x="6.94531" y="15.3906" width="0.265723" height="1.4416" rx="0.132862" transform="rotate(15 6.94531 15.3906)" fill="currentColor" stroke="currentColor" stroke-width="0.533065"/>
<rect x="3" y="5.3125" width="0.265724" height="1.4416" rx="0.132862" transform="rotate(120 3 5.3125)" fill="currentColor" stroke="currentColor" stroke-width="0.533065"/>
<rect x="12.8516" y="1.61719" width="0.265723" height="1.4416" rx="0.132862" transform="rotate(30 12.8516 1.61719)" fill="currentColor" stroke="currentColor" stroke-width="0.533065"/>
<rect x="16.0547" y="12.8516" width="0.265724" height="1.4416" rx="0.132862" transform="rotate(120 16.0547 12.8516)" fill="currentColor" stroke="currentColor" stroke-width="0.533065"/>
<rect x="5.3125" y="14.6719" width="0.265723" height="1.4416" rx="0.132862" transform="rotate(30 5.3125 14.6719)" fill="currentColor" stroke="currentColor" stroke-width="0.533065"/>
<rect x="4.10938" y="3.92188" width="0.265723" height="1.4416" rx="0.132862" transform="rotate(135 4.10938 3.92188)" fill="currentColor" stroke="currentColor" stroke-width="0.533065"/>
<rect x="14.5859" y="2.90625" width="0.265723" height="1.4416" rx="0.132862" transform="rotate(45 14.5859 2.90625)" fill="currentColor" stroke="currentColor" stroke-width="0.533065"/>
<rect x="14.7734" y="14.5859" width="0.265723" height="1.4416" rx="0.132862" transform="rotate(135 14.7734 14.5859)" fill="currentColor" stroke="currentColor" stroke-width="0.533065"/>
<rect x="3.92188" y="13.5625" width="0.265723" height="1.4416" rx="0.132862" transform="rotate(45 3.92188 13.5625)" fill="currentColor" stroke="currentColor" stroke-width="0.533065"/>
<rect x="5.54688" y="2.86719" width="0.265723" height="1.4416" rx="0.132862" transform="rotate(150 5.54688 2.86719)" fill="currentColor" stroke="currentColor" stroke-width="0.533065"/>
<rect x="15.9219" y="4.59375" width="0.265723" height="1.4416" rx="0.132862" transform="rotate(60 15.9219 4.59375)" fill="currentColor" stroke="currentColor" stroke-width="0.533065"/>
<rect x="13.0859" y="15.9219" width="0.265723" height="1.4416" rx="0.132862" transform="rotate(150 13.0859 15.9219)" fill="currentColor" stroke="currentColor" stroke-width="0.533065"/>
<rect x="2.86719" y="12.1328" width="0.265723" height="1.4416" rx="0.132862" transform="rotate(60 2.86719 12.1328)" fill="currentColor" stroke="currentColor" stroke-width="0.533065"/>
<rect x="7.20312" y="2.21094" width="0.265723" height="1.4416" rx="0.132862" transform="rotate(165 7.20312 2.21094)" fill="currentColor" stroke="currentColor" stroke-width="0.533065"/>
<rect x="16.7812" y="6.57031" width="0.265723" height="1.4416" rx="0.132862" transform="rotate(75 16.7812 6.57031)" fill="currentColor" stroke="currentColor" stroke-width="0.533065"/>
<rect x="11.1094" y="16.7812" width="0.265723" height="1.4416" rx="0.132862" transform="rotate(165 11.1094 16.7812)" fill="currentColor" stroke="currentColor" stroke-width="0.533065"/>
<rect x="2.21875" y="10.4688" width="0.265723" height="1.4416" rx="0.132862" transform="rotate(75 2.21875 10.4688)" fill="currentColor" stroke="currentColor" stroke-width="0.533065"/>
</svg>
