<svg width="19" height="19" viewBox="0 0 19 19" fill="none" xmlns="http://www.w3.org/2000/svg">
<path d="M2.37891 13.5V12.4531L5.15625 9.73047C5.42188 9.46224 5.64323 9.22396 5.82031 9.01563C5.9974 8.80729 6.13021 8.60547 6.21875 8.41016C6.30729 8.21484 6.35156 8.00651 6.35156 7.78516C6.35156 7.53255 6.29427 7.31641 6.17969 7.13672C6.0651 6.95443 5.90755 6.8138 5.70703 6.71484C5.50651 6.61589 5.27865 6.56641 5.02344 6.56641C4.76042 6.56641 4.52995 6.62109 4.33203 6.73047C4.13411 6.83724 3.98047 6.98958 3.87109 7.1875C3.76432 7.38542 3.71094 7.62109 3.71094 7.89453H2.33203C2.33203 7.38672 2.44792 6.94531 2.67969 6.57031C2.91146 6.19531 3.23047 5.90495 3.63672 5.69922C4.04557 5.49349 4.51432 5.39062 5.04297 5.39062C5.57943 5.39062 6.05078 5.49089 6.45703 5.69141C6.86328 5.89193 7.17839 6.16667 7.40234 6.51563C7.62891 6.86458 7.74219 7.26302 7.74219 7.71094C7.74219 8.01042 7.6849 8.30469 7.57031 8.59375C7.45573 8.88281 7.25391 9.20312 6.96484 9.55469C6.67839 9.90625 6.27604 10.332 5.75781 10.832L4.37891 12.2344V12.2891H7.86328V13.5H2.37891Z" fill="black"/>
<path d="M11.5848 5.5V13.5H10.1356V6.91016H10.0887L8.21766 8.10547V6.77734L10.2059 5.5H11.5848Z" fill="black"/>
<path d="M15.2142 11.5V7.5H16.1217V11.5H15.2142ZM13.668 9.95376V9.04624H17.668V9.95376H13.668Z" fill="black"/>
</svg>
