<svg width="16" height="9" viewBox="0 0 16 9" fill="none" xmlns="http://www.w3.org/2000/svg">
<path d="M3.63281 0.5V8.5H2.18359V1.91016H2.13672L0.265625 3.10547V1.77734L2.25391 0.5H3.63281Z" fill="black"/>
<path d="M7.62781 8.60938C7.04708 8.60938 6.53146 8.51172 6.08094 8.31641C5.63302 8.12109 5.28146 7.85417 5.02625 7.51563C4.77365 7.17448 4.64865 6.78776 4.65125 6.35547C4.64865 6.01953 4.72156 5.71094 4.87 5.42969C5.01844 5.14844 5.21896 4.91406 5.47156 4.72656C5.72677 4.53646 6.01062 4.41536 6.32312 4.36328V4.30859C5.91167 4.21745 5.57833 4.00781 5.32312 3.67969C5.07052 3.34896 4.94552 2.96745 4.94812 2.53516C4.94552 2.1237 5.0601 1.75651 5.29187 1.43359C5.52365 1.11068 5.84135 0.856771 6.245 0.671875C6.64865 0.484375 7.10958 0.390625 7.62781 0.390625C8.14083 0.390625 8.59786 0.484375 8.99891 0.671875C9.40255 0.856771 9.72026 1.11068 9.95203 1.43359C10.1864 1.75651 10.3036 2.1237 10.3036 2.53516C10.3036 2.96745 10.1747 3.34896 9.91687 3.67969C9.66167 4.00781 9.33224 4.21745 8.92859 4.30859V4.36328C9.24109 4.41536 9.52234 4.53646 9.77234 4.72656C10.0249 4.91406 10.2255 5.14844 10.3739 5.42969C10.5249 5.71094 10.6005 6.01953 10.6005 6.35547C10.6005 6.78776 10.4729 7.17448 10.2177 7.51563C9.96245 7.85417 9.61089 8.12109 9.16297 8.31641C8.71766 8.51172 8.20594 8.60938 7.62781 8.60938ZM7.62781 7.49219C7.92729 7.49219 8.18771 7.44141 8.40906 7.33984C8.63042 7.23568 8.80229 7.08984 8.92469 6.90234C9.04708 6.71484 9.10958 6.4987 9.11219 6.25391C9.10958 5.9987 9.04318 5.77344 8.91297 5.57813C8.78536 5.38021 8.60958 5.22526 8.38562 5.11328C8.16427 5.0013 7.91167 4.94531 7.62781 4.94531C7.34135 4.94531 7.08615 5.0013 6.86219 5.11328C6.63823 5.22526 6.46115 5.38021 6.33094 5.57813C6.20333 5.77344 6.14083 5.9987 6.14344 6.25391C6.14083 6.4987 6.20073 6.71484 6.32312 6.90234C6.44552 7.08724 6.6174 7.23177 6.83875 7.33594C7.06271 7.4401 7.32573 7.49219 7.62781 7.49219ZM7.62781 3.84766C7.8726 3.84766 8.08875 3.79818 8.27625 3.69922C8.46635 3.60026 8.61609 3.46224 8.72547 3.28516C8.83484 3.10807 8.89083 2.90365 8.89344 2.67188C8.89083 2.44271 8.83615 2.24219 8.72937 2.07031C8.6226 1.89583 8.47417 1.76172 8.28406 1.66797C8.09396 1.57161 7.87521 1.52344 7.62781 1.52344C7.37521 1.52344 7.15255 1.57161 6.95984 1.66797C6.76974 1.76172 6.6213 1.89583 6.51453 2.07031C6.41036 2.24219 6.35958 2.44271 6.36219 2.67188C6.35958 2.90365 6.41167 3.10807 6.51844 3.28516C6.62781 3.45964 6.77755 3.59766 6.96766 3.69922C7.16036 3.79818 7.38042 3.84766 7.62781 3.84766Z" fill="black"/>
<path d="M13.2142 6.5V2.5H14.1217V6.5H13.2142ZM11.668 4.95376V4.04624H15.668V4.95376H11.668Z" fill="black"/>
</svg>
