<svg width="18" height="18" viewBox="0 0 24 24" fill="none" xmlns="http://www.w3.org/2000/svg">
<path d="M3.89062 9.1629V8.74371C3.89062 6.61156 3.89062 5.54548 4.47597 4.75157C5.06131 3.95765 6.07972 3.64243 8.11654 3.01199L12.923 1.52428C13.1094 1.46661 13.2025 1.43777 13.2752 1.41919C15.1127 0.949714 16.9193 2.28171 17.0141 4.17583C17.0179 4.25078 17.0179 4.34831 17.0179 4.54337" stroke="currentColor" stroke-width="1.5"/>
<path d="M3.89648 10.3608C3.89648 7.53241 3.89648 6.1182 4.77516 5.23952C5.65384 4.36084 7.06806 4.36084 9.89648 4.36084H14.113C16.9414 4.36084 18.3556 4.36084 19.2343 5.23952C20.113 6.1182 20.113 7.53241 20.113 10.3608V16.3792C20.113 19.2076 20.113 20.6218 19.2343 21.5005C18.3556 22.3792 16.9414 22.3792 14.113 22.3792H9.89649C7.06806 22.3792 5.65384 22.3792 4.77516 21.5005C3.89648 20.6218 3.89648 19.2076 3.89648 16.3792V10.3608Z" stroke="currentColor" stroke-width="1.5"/>
<ellipse cx="12.0027" cy="11.3877" rx="3.15305" ry="3.15337" stroke="currentColor" stroke-width="1.5"/>
<line x1="9.61523" y1="17.9575" x2="14.3897" y2="17.9575" stroke="currentColor" stroke-width="1.5" stroke-linecap="round"/>
</svg>
