<svg xmlns="http://www.w3.org/2000/svg" width="19" height="18" viewBox="0 0 19 18" fill="none">
  <path d="M14 1.5C14.3978 1.5 14.7794 1.65804 15.0607 1.93934C15.342 2.22064 15.5 2.60218 15.5 3V15.75C15.5 16.1478 15.342 16.5294 15.0607 16.8107C14.7794 17.092 14.3978 17.25 14 17.25H5C4.60218 17.25 4.22064 17.092 3.93934 16.8107C3.65804 16.5294 3.5 16.1478 3.5 15.75V3C3.5 2.60218 3.65804 2.22064 3.93934 1.93934C4.22064 1.65804 4.60218 1.5 5 1.5H14ZM11 12H8C7.80884 12.0002 7.62498 12.0734 7.48597 12.2046C7.34697 12.3359 7.26332 12.5152 7.25212 12.706C7.24092 12.8969 7.30301 13.0848 7.4257 13.2314C7.54839 13.378 7.72243 13.4722 7.91225 13.4948L8 13.5H11C11.1912 13.4998 11.375 13.4266 11.514 13.2954C11.653 13.1641 11.7367 12.9848 11.7479 12.794C11.7591 12.6031 11.697 12.4152 11.5743 12.2686C11.4516 12.122 11.2776 12.0278 11.0877 12.0052L11 12ZM9.5 4.5C8.70435 4.5 7.94129 4.81607 7.37868 5.37868C6.81607 5.94129 6.5 6.70435 6.5 7.5C6.5 8.29565 6.81607 9.05871 7.37868 9.62132C7.94129 10.1839 8.70435 10.5 9.5 10.5C10.2956 10.5 11.0587 10.1839 11.6213 9.62132C12.1839 9.05871 12.5 8.29565 12.5 7.5C12.5 6.70435 12.1839 5.94129 11.6213 5.37868C11.0587 4.81607 10.2956 4.5 9.5 4.5ZM9.5 6C9.89782 6 10.2794 6.15804 10.5607 6.43934C10.842 6.72064 11 7.10218 11 7.5C11 7.89782 10.842 8.27936 10.5607 8.56066C10.2794 8.84196 9.89782 9 9.5 9C9.10218 9 8.72064 8.84196 8.43934 8.56066C8.15804 8.27936 8 7.89782 8 7.5C8 7.10218 8.15804 6.72064 8.43934 6.43934C8.72064 6.15804 9.10218 6 9.5 6Z" fill="currentColor"/>
</svg>
