<svg xmlns="http://www.w3.org/2000/svg" width="18" height="18" viewBox="0 0 18 18" fill="none">
  <path d="M6.75 1.5H11.25C15 1.5 16.5 3 16.5 6.75V11.25C16.5 15 15 16.5 11.25 16.5H6.75C3 16.5 1.5 15 1.5 11.25V6.75C1.5 3 3 1.5 6.75 1.5Z" stroke="currentColor" stroke-width="1.5" stroke-linecap="round" stroke-linejoin="round"/>
  <path d="M6.42578 11.4528L11.3308 6.54785" stroke="currentColor" stroke-width="1.5" stroke-linecap="round" stroke-linejoin="round"/>
  <path d="M6.73501 7.77761C7.24449 7.77761 7.65749 7.36461 7.65749 6.85513C7.65749 6.34564 7.24449 5.93262 6.73501 5.93262C6.22553 5.93262 5.8125 6.34564 5.8125 6.85513C5.8125 7.36461 6.22553 7.77761 6.73501 7.77761Z" stroke="currentColor" stroke-width="1.5" stroke-linecap="round" stroke-linejoin="round"/>
  <path d="M11.6412 12.0676C12.1507 12.0676 12.5637 11.6546 12.5637 11.1451C12.5637 10.6357 12.1507 10.2227 11.6412 10.2227C11.1318 10.2227 10.7188 10.6357 10.7188 11.1451C10.7188 11.6546 11.1318 12.0676 11.6412 12.0676Z" stroke="currentColor" stroke-width="1.5" stroke-linecap="round" stroke-linejoin="round"/>
</svg>
