<svg width="18" height="18" viewBox="0 0 18 18" fill="none" xmlns="http://www.w3.org/2000/svg">
<path d="M10.0352 5.05469H7.63281" stroke="currentColor" stroke-width="0.775862" stroke-linecap="round" stroke-linejoin="round"/>
<path d="M8.83719 13.2213C9.35134 13.2213 9.76814 12.8045 9.76814 12.2903C9.76814 11.7762 9.35134 11.3594 8.83719 11.3594C8.32305 11.3594 7.90625 11.7762 7.90625 12.2903C7.90625 12.8045 8.32305 13.2213 8.83719 13.2213Z" stroke="currentColor" stroke-width="0.775862" stroke-linecap="round" stroke-linejoin="round"/>
<path fill-rule="evenodd" clip-rule="evenodd" d="M4.45193 5.95557C4.45193 4.75134 4.61266 4.16751 4.92915 3.85102C5.24564 3.53454 5.82947 3.3738 7.0337 3.3738H10.6374C11.8416 3.3738 12.4254 3.53454 12.7419 3.85102C13.0584 4.16751 13.2191 4.75134 13.2191 5.95557V10.7507C13.4208 10.704 13.6298 10.6771 13.8443 10.6726C13.9173 10.6709 13.9898 10.6718 14.0617 10.6752V5.95557C14.0617 4.75737 13.9221 3.83967 13.3377 3.25525C12.7533 2.67082 11.8356 2.53125 10.6374 2.53125H7.0337C5.83549 2.53125 4.9178 2.67082 4.33337 3.25525C3.74895 3.83967 3.60938 4.75737 3.60938 5.95557V11.9617C3.60938 13.1599 3.74895 14.0776 4.33337 14.662C4.9178 15.2464 5.83549 15.386 7.0337 15.386H10.6374C10.864 15.386 11.0805 15.381 11.2867 15.3689C11.1287 15.1167 11.006 14.837 10.9274 14.54C10.835 14.5423 10.7383 14.5434 10.6374 14.5434H7.0337C5.82947 14.5434 5.24564 14.3827 4.92915 14.0662C4.61266 13.7497 4.45193 13.1659 4.45193 11.9617V5.95557Z" fill="currentColor"/>
<path fill-rule="evenodd" clip-rule="evenodd" d="M16.5775 13.6973C16.5442 12.2252 15.3254 11.06 13.8536 11.0933L13.8531 11.0933C13.2295 11.1065 12.6564 11.3383 12.2001 11.7138C11.6013 12.2133 11.2296 12.9711 11.2496 13.8089L11.2497 13.8133C11.2563 14.3093 11.4085 14.7803 11.6608 15.1719C11.6622 15.1742 11.6637 15.1764 11.6651 15.1787C12.1359 15.9413 12.992 16.4404 13.9646 16.4211C14.6397 16.4006 15.2439 16.1406 15.7018 15.7159C15.7033 15.7144 15.7049 15.713 15.7064 15.7116C15.9058 15.5322 16.0838 15.3138 16.2139 15.0797C16.2156 15.0765 16.2175 15.0733 16.2193 15.0702C16.4588 14.6643 16.5907 14.1944 16.5775 13.699L16.5775 13.6973ZM17.4198 13.6774C17.3755 11.7409 15.7717 10.2072 13.8349 10.2509C13.009 10.2685 12.2559 10.5763 11.6635 11.0642L11.6616 11.0657C10.8732 11.7227 10.3816 12.7222 10.4072 13.8267C10.4164 14.4854 10.618 15.1075 10.9503 15.6248C11.5748 16.6337 12.7066 17.2897 13.9839 17.2635L13.9877 17.2634C14.8687 17.2372 15.6667 16.8966 16.2724 16.3357C16.5336 16.1002 16.7701 15.8121 16.9477 15.4937C17.2616 14.9599 17.4372 14.3367 17.4198 13.6774Z" fill="currentColor"/>
<path d="M12.7109 13.7785L13.4899 14.5189L15.1019 12.9609" stroke="currentColor" stroke-width="0.775862" stroke-linecap="round" stroke-linejoin="round"/>
</svg>
