<svg xmlns="http://www.w3.org/2000/svg" width="18" height="18" viewBox="0 0 18 18" fill="none">
  <path d="M14.642 4.87726C13.9961 3.9858 13.1479 3.26022 12.1672 2.76006C11.1865 2.2599 10.1012 1.99942 9.00033 2C5.39828 2 2.43607 4.73124 2.06903 8.23638L2 8.89613L3.32082 9.03485L3.38918 8.37444C3.5128 7.20615 3.99801 6.10558 4.77712 5.22628C5.55623 4.34698 6.59038 3.7328 7.73529 3.46943C8.88019 3.20606 10.0788 3.30663 11.1638 3.75711C12.2488 4.2076 13.1661 4.98552 13.7878 5.98236H11.3234V7.30982H15.9695V2.66373H14.642V4.87726ZM14.6798 8.90343L14.6108 9.56384C14.487 10.7319 14.0018 11.8323 13.2227 12.7114C12.4436 13.5905 11.4096 14.2046 10.2649 14.4679C9.12015 14.7313 7.92176 14.6308 6.83686 14.1805C5.75196 13.7302 4.83465 12.9525 4.21287 11.9559H6.67729V10.6285H2.0312V15.2745H3.35865V13.061C4.00459 13.9525 4.85272 14.6781 5.83342 15.1782C6.81412 15.6784 7.89945 15.9389 9.00033 15.9383C12.6017 15.9383 15.5646 13.207 15.931 9.70189L16 9.04215L14.6798 8.90343Z" fill="currentColor"/>
</svg>
