<svg width="18" height="18" viewBox="0 0 24 24" fill="none" xmlns="http://www.w3.org/2000/svg">
<path d="M21.998 9.7001V7.99658C21.998 3.99658 20.998 2.99658 16.998 2.99658H6.99805C2.99805 2.99658 1.99805 3.99658 1.99805 7.99658V15.9966C1.99805 19.9966 2.99805 20.9966 6.99805 20.9966H9.33231" stroke="currentColor" stroke-width="1.5" stroke-linecap="round" stroke-linejoin="round"/>
<path d="M18.5547 7.99658H5.00093" stroke="currentColor" stroke-width="1.5" stroke-linecap="round" stroke-linejoin="round"/>
<path d="M11.5723 11.3389H5.0027" stroke="currentColor" stroke-width="1.5" stroke-linecap="round" stroke-linejoin="round"/>
<path d="M22.9545 15.9569L18.3645 11.9869C17.9645 11.6469 17.3845 11.6469 16.9845 11.9869L12.3945 15.9569" stroke="currentColor" stroke-width="1.5" stroke-linecap="round" stroke-linejoin="round"/>
<path d="M13.4648 15.0366V20.1866C13.4648 20.7666 13.9348 21.2466 14.5248 21.2466H20.9248C21.5048 21.2466 21.9848 20.7766 21.9848 20.1866V15.1166" stroke="currentColor" stroke-width="1.5" stroke-linecap="round" stroke-linejoin="round"/>
</svg>
