<svg xmlns="http://www.w3.org/2000/svg" width="18" height="18" viewBox="0 0 18 18" fill="none">
  <path d="M1.5 6.75V4.875C1.5 3.0075 3.0075 1.5 4.875 1.5H6.75" stroke="currentColor" stroke-width="1.125" stroke-linecap="round" stroke-linejoin="round"/>
  <path d="M11.25 1.5H13.125C14.9925 1.5 16.5 3.0075 16.5 4.875V6.75" stroke="currentColor" stroke-width="1.125" stroke-linecap="round" stroke-linejoin="round"/>
  <path d="M16.5 12V13.125C16.5 14.9925 14.9925 16.5 13.125 16.5H12" stroke="currentColor" stroke-width="1.125" stroke-linecap="round" stroke-linejoin="round"/>
  <path d="M6.75 16.5H4.875C3.0075 16.5 1.5 14.9925 1.5 13.125V11.25" stroke="currentColor" stroke-width="1.125" stroke-linecap="round" stroke-linejoin="round"/>
  <path d="M12.75 7.125V10.875C12.75 12.375 12 13.125 10.5 13.125H7.5C6 13.125 5.25 12.375 5.25 10.875V7.125C5.25 5.625 6 4.875 7.5 4.875H10.5C12 4.875 12.75 5.625 12.75 7.125Z" stroke="currentColor" stroke-width="1.125" stroke-linecap="round" stroke-linejoin="round"/>
  <path d="M14.25 9H3.75" stroke="currentColor" stroke-width="1.125" stroke-linecap="round" stroke-linejoin="round"/>
</svg>
