<svg xmlns="http://www.w3.org/2000/svg" width="18" height="18" viewBox="0 0 18 18" fill="none">
  <path d="M2.25 6.83252V11.16C2.25 12.75 2.25 12.75 3.75 13.7625L7.875 16.1475C8.4975 16.5075 9.51 16.5075 10.125 16.1475L14.25 13.7625C15.75 12.75 15.75 12.75 15.75 11.1675V6.83252C15.75 5.25002 15.75 5.25002 14.25 4.23752L10.125 1.85252C9.51 1.49252 8.4975 1.49252 7.875 1.85252L3.75 4.23752C2.25 5.25002 2.25 5.25002 2.25 6.83252Z" stroke="currentColor" stroke-width="1.5" stroke-linecap="round" stroke-linejoin="round"/>
  <path d="M9 11.25C10.2426 11.25 11.25 10.2426 11.25 9C11.25 7.75736 10.2426 6.75 9 6.75C7.75736 6.75 6.75 7.75736 6.75 9C6.75 10.2426 7.75736 11.25 9 11.25Z" stroke="currentColor" stroke-width="1.5" stroke-linecap="round" stroke-linejoin="round"/>
</svg>
