<svg xmlns="http://www.w3.org/2000/svg" width="19" height="18" viewBox="0 0 19 18" fill="none">
  <path d="M9.33203 11.75C10.5747 11.75 11.582 10.7426 11.582 9.5C11.582 8.25736 10.5747 7.25 9.33203 7.25C8.08939 7.25 7.08203 8.25736 7.08203 9.5C7.08203 10.7426 8.08939 11.75 9.33203 11.75Z" fill="#4B5058" stroke="#1A1A1A" stroke-width="1.125" stroke-miterlimit="10" stroke-linecap="round" stroke-linejoin="round"/>
  <path d="M1.83203 10.1601V8.84007C1.83203 8.06007 2.46953 7.41507 3.25703 7.41507C4.61453 7.41507 5.16953 6.45507 4.48703 5.27757C4.09703 4.60257 4.32953 3.72507 5.01203 3.33507L6.30953 2.59257C6.90203 2.24007 7.66703 2.45007 8.01953 3.04257L8.10203 3.18507C8.77703 4.36257 9.88703 4.36257 10.5695 3.18507L10.652 3.04257C11.0045 2.45007 11.7695 2.24007 12.362 2.59257L13.6595 3.33507C14.342 3.72507 14.5745 4.60257 14.1845 5.27757C13.502 6.45507 14.057 7.41507 15.4145 7.41507C16.1945 7.41507 16.8395 8.05257 16.8395 8.84007V10.1601C16.8395 10.9401 16.202 11.5851 15.4145 11.5851C14.057 11.5851 13.502 12.5451 14.1845 13.7226C14.5745 14.4051 14.342 15.2751 13.6595 15.6651L12.362 16.4076C11.7695 16.7601 11.0045 16.5501 10.652 15.9576L10.5695 15.8151C9.89453 14.6376 8.78453 14.6376 8.10203 15.8151L8.01953 15.9576C7.66703 16.5501 6.90203 16.7601 6.30953 16.4076L5.01203 15.6651C4.32953 15.2751 4.09703 14.3976 4.48703 13.7226C5.16953 12.5451 4.61453 11.5851 3.25703 11.5851C2.46953 11.5851 1.83203 10.9401 1.83203 10.1601Z" stroke="#1A1A1A" stroke-width="1.125" stroke-miterlimit="10" stroke-linecap="round" stroke-linejoin="round"/>
</svg>