<svg xmlns="http://www.w3.org/2000/svg" width="18" height="18" viewBox="0 0 18 18" fill="none">
  <path d="M14.5878 5.20498V7.08748C14.5878 7.61998 14.0478 7.96498 13.5453 7.77748C12.9153 7.54498 12.2178 7.45498 11.4828 7.52998C9.69777 7.72498 7.86777 9.44248 7.56777 11.22C7.32027 12.6975 7.79277 14.0775 8.70027 15.0525C9.11277 15.5025 8.83527 16.23 8.22777 16.2975C7.71027 16.3575 7.20027 16.3425 6.91527 16.1325L2.79027 13.05C2.30277 12.6825 1.90527 11.8875 1.90527 11.2725V5.20498C1.90527 4.35748 2.55027 3.42748 3.33777 3.12748L7.46277 1.58248C7.89027 1.42498 8.59527 1.42498 9.02277 1.58248L13.1478 3.12748C13.9428 3.42748 14.5878 4.35748 14.5878 5.20498Z" fill="currentColor"/>
  <path d="M12 8.63257C10.14 8.63257 8.625 10.1476 8.625 12.0076C8.625 13.8676 10.14 15.3826 12 15.3826C13.86 15.3826 15.375 13.8676 15.375 12.0076C15.375 10.1401 13.86 8.63257 12 8.63257Z" fill="currentColor"/>
  <path d="M15.75 16.4999C15.5475 16.4999 15.36 16.4174 15.2175 16.2824C15.1875 16.2449 15.15 16.2074 15.1275 16.1624C15.0975 16.1249 15.075 16.0799 15.06 16.0349C15.0375 15.9899 15.0225 15.9449 15.015 15.8999C15.0075 15.8474 15 15.8024 15 15.7499C15 15.6524 15.0225 15.5549 15.06 15.4649C15.0975 15.3674 15.15 15.2924 15.2175 15.2174C15.39 15.0449 15.6525 14.9624 15.8925 15.0149C15.945 15.0224 15.99 15.0374 16.035 15.0599C16.08 15.0749 16.125 15.0974 16.1625 15.1274C16.2075 15.1499 16.245 15.1874 16.2825 15.2174C16.35 15.2924 16.4025 15.3674 16.44 15.4649C16.4775 15.5549 16.5 15.6524 16.5 15.7499C16.5 15.9449 16.4175 16.1399 16.2825 16.2824C16.245 16.3124 16.2075 16.3424 16.1625 16.3724C16.125 16.4024 16.08 16.4249 16.035 16.4399C15.99 16.4624 15.945 16.4774 15.8925 16.4849C15.8475 16.4924 15.795 16.4999 15.75 16.4999Z" fill="currentColor"/>
</svg>
