<svg xmlns="http://www.w3.org/2000/svg" width="18" height="18" viewBox="0 0 18 18" fill="none">
  <path d="M15.4426 7.91254V5.34004C15.4426 4.41754 14.7376 3.39754 13.8751 3.07504L10.1326 1.67254C9.51012 1.44004 8.49012 1.44004 7.86762 1.67254L4.12512 3.08254C3.26262 3.40504 2.55762 4.42504 2.55762 5.34004V10.9125C2.55762 11.7975 3.14262 12.96 3.85512 13.4925L7.08012 15.9C7.60512 16.305 8.30262 16.5 9.00012 16.5" stroke="currentColor" stroke-width="1.125" stroke-linecap="round" stroke-linejoin="round"/>
  <path d="M12 15C13.6569 15 15 13.6569 15 12C15 10.3431 13.6569 9 12 9C10.3431 9 9 10.3431 9 12C9 13.6569 10.3431 15 12 15Z" stroke="currentColor" stroke-width="1.125" stroke-linecap="round" stroke-linejoin="round"/>
  <path d="M15.7466 15.75H15.7534" stroke="currentColor" stroke-width="1.5" stroke-linecap="round" stroke-linejoin="round"/>
</svg>
