<svg width="18" height="19" viewBox="0 0 18 19" fill="none" xmlns="http://www.w3.org/2000/svg">
<path d="M13.9066 3.58988L9.78156 2.04488C9.35406 1.88738 8.65656 1.88738 8.22906 2.04488L4.10406 3.58988C3.30906 3.88988 2.66406 4.81988 2.66406 5.66738V11.7424C2.66406 12.3499 3.06156 13.1524 3.54906 13.5124L7.67406 16.5949C8.40156 17.1424 9.59406 17.1424 10.3216 16.5949L14.4466 13.5124C14.9341 13.1449 15.3316 12.3499 15.3316 11.7424V5.66738C15.3391 4.81988 14.6941 3.88988 13.9066 3.58988ZM11.6116 7.78988L8.38656 11.0149C8.27406 11.1274 8.13156 11.1799 7.98906 11.1799C7.84656 11.1799 7.70406 11.1274 7.59156 11.0149L6.39156 9.79988C6.17406 9.58238 6.17406 9.22238 6.39156 9.00488C6.60906 8.78738 6.96906 8.78738 7.18656 9.00488L7.99656 9.81488L10.8241 6.98738C11.0416 6.76988 11.4016 6.76988 11.6191 6.98738C11.8366 7.20488 11.8366 7.57238 11.6116 7.78988Z" fill="#4B5058"/>
</svg>
