<svg xmlns="http://www.w3.org/2000/svg" width="18" height="18" viewBox="0 0 18 18" fill="none">
  <path d="M10.8752 1.7251C10.1252 1.7251 9.4502 2.3251 9.4502 3.1501V6.6001C9.4502 7.3501 10.0502 8.0251 10.8752 8.0251C11.6252 8.0251 12.3002 7.4251 12.3002 6.6001V3.0751C12.3002 2.3251 11.7002 1.7251 10.8752 1.7251Z" stroke="currentColor" stroke-width="1.125" stroke-miterlimit="10" stroke-linecap="round" stroke-linejoin="round"/>
  <path d="M13.9502 7.94993H15.1502C15.8252 7.94993 16.3502 7.42493 16.3502 6.74993C16.3502 6.07493 15.8252 5.54993 15.1502 5.54993C14.4752 5.54993 13.9502 6.07493 13.9502 6.74993V7.94993Z" stroke="currentColor" stroke-width="1.125" stroke-miterlimit="10" stroke-linecap="round" stroke-linejoin="round"/>
  <path d="M1.5 6.9001C1.5 7.6501 2.1 8.3251 2.925 8.3251H6.375C7.125 8.3251 7.8 7.7251 7.8 6.9001C7.8 6.1501 7.2 5.4751 6.375 5.4751H2.925C2.1 5.5501 1.5 6.1501 1.5 6.9001Z" stroke="currentColor" stroke-width="1.125" stroke-miterlimit="10" stroke-linecap="round" stroke-linejoin="round"/>
  <path d="M7.80039 3.825V2.7C7.80039 2.025 7.27539 1.5 6.60039 1.5C5.92539 1.5 5.40039 2.025 5.40039 2.7C5.40039 3.375 5.92539 3.9 6.60039 3.9H7.80039V3.825Z" stroke="currentColor" stroke-width="1.125" stroke-miterlimit="10" stroke-linecap="round" stroke-linejoin="round"/>
  <path d="M7.05 16.3499C7.8 16.3499 8.475 15.7499 8.475 14.9249V11.4749C8.475 10.7249 7.875 10.0499 7.05 10.0499C6.3 10.0499 5.625 10.6499 5.625 11.4749V14.9249C5.7 15.6749 6.3 16.3499 7.05 16.3499Z" stroke="currentColor" stroke-width="1.125" stroke-miterlimit="10" stroke-linecap="round" stroke-linejoin="round"/>
  <path d="M4.05039 10.0499H2.85039C2.17539 10.0499 1.65039 10.5749 1.65039 11.2499C1.65039 11.9249 2.17539 12.4499 2.85039 12.4499C3.52539 12.4499 4.05039 11.9249 4.05039 11.2499V10.0499Z" stroke="currentColor" stroke-width="1.125" stroke-miterlimit="10" stroke-linecap="round" stroke-linejoin="round"/>
  <path d="M16.5002 11.0999C16.5002 10.3499 15.9002 9.67493 15.0752 9.67493H11.6252C10.8752 9.67493 10.2002 10.2749 10.2002 11.0999C10.2002 11.8499 10.8002 12.5249 11.6252 12.5249H15.0752C15.8252 12.5249 16.5002 11.8499 16.5002 11.0999Z" stroke="currentColor" stroke-width="1.125" stroke-miterlimit="10" stroke-linecap="round" stroke-linejoin="round"/>
  <path d="M10.2002 14.1001V15.3001C10.2002 15.9751 10.7252 16.5001 11.4002 16.5001C12.0752 16.5001 12.6002 15.9751 12.6002 15.3001C12.6002 14.6251 12.0752 14.1001 11.4002 14.1001H10.2002Z" stroke="currentColor" stroke-width="1.125" stroke-miterlimit="10" stroke-linecap="round" stroke-linejoin="round"/>
</svg>
