<svg xmlns="http://www.w3.org/2000/svg" width="18" height="19" viewBox="0 0 18 19" fill="none">
  <path d="M12.18 1.57422H5.82C3.75 1.57422 3 2.32422 3 4.43172V13.7167C3 15.8242 3.75 16.5742 5.82 16.5742H12.1725C14.25 16.5742 15 15.8242 15 13.7167V4.43172C15 2.32422 14.25 1.57422 12.18 1.57422ZM9 14.5492C8.28 14.5492 7.6875 13.9567 7.6875 13.2367C7.6875 12.5167 8.28 11.9242 9 11.9242C9.72 11.9242 10.3125 12.5167 10.3125 13.2367C10.3125 13.9567 9.72 14.5492 9 14.5492ZM10.5 4.76172H7.5C7.1925 4.76172 6.9375 4.50672 6.9375 4.19922C6.9375 3.89172 7.1925 3.63672 7.5 3.63672H10.5C10.8075 3.63672 11.0625 3.89172 11.0625 4.19922C11.0625 4.50672 10.8075 4.76172 10.5 4.76172Z" fill="currentColor"/>
</svg>
