<svg xmlns="http://www.w3.org/2000/svg" width="10" height="12" viewBox="0 0 10 12" fill="none">
  <path d="M9.23061 4.6483V6.34784C8.93358 6.31883 8.54764 6.25135 8.12071 6.09496C7.56323 5.89063 7.14828 5.61127 6.87648 5.39496V8.82999L6.86954 8.81927C6.87395 8.88738 6.87648 8.95674 6.87648 9.02674C6.87648 10.7326 5.48847 12.1212 3.78199 12.1212C2.07551 12.1212 0.6875 10.7326 0.6875 9.02674C0.6875 7.3209 2.07551 5.93163 3.78199 5.93163C3.9491 5.93163 4.11307 5.94487 4.27325 5.97072V7.64567C4.11938 7.59081 3.95415 7.56117 3.78199 7.56117C2.97415 7.56117 2.31641 8.21828 2.31641 9.02674C2.31641 9.83521 2.97415 10.4923 3.78199 10.4923C4.58982 10.4923 5.24757 9.83458 5.24757 9.02674C5.24757 8.99647 5.24694 8.9662 5.24504 8.93593V2.26074H6.94332C6.94963 2.40453 6.95531 2.54957 6.96161 2.69335C6.97296 2.9765 7.07387 3.24831 7.24981 3.47092C7.45603 3.73263 7.76061 4.03659 8.18818 4.27938C8.58863 4.50641 8.96448 4.60352 9.23061 4.64956V4.6483Z" fill="#FF004F"/>
  <path d="M8.64858 3.2687V4.96824C8.35155 4.93923 7.96561 4.87175 7.53867 4.71536C6.9812 4.51104 6.56624 4.23167 6.29444 4.01536V7.45039L6.28751 7.43967C6.29192 7.50778 6.29444 7.57715 6.29444 7.64715C6.29444 9.35299 4.90644 10.7416 3.19996 10.7416C1.49348 10.7416 0.105469 9.35299 0.105469 7.64715C0.105469 5.9413 1.49348 4.55203 3.19996 4.55203C3.36707 4.55203 3.53104 4.56527 3.69121 4.59113V6.26607C3.53734 6.21121 3.37212 6.18157 3.19996 6.18157C2.39212 6.18157 1.73438 6.83868 1.73438 7.64715C1.73438 8.45561 2.39212 9.11272 3.19996 9.11272C4.00779 9.11272 4.66553 8.45498 4.66553 7.64715C4.66553 7.61688 4.6649 7.58661 4.66301 7.55634V0.879883H6.36129C6.3676 1.02367 6.37327 1.16871 6.37958 1.31249C6.39093 1.59565 6.49183 1.86745 6.66778 2.09006C6.87399 2.35177 7.17859 2.65573 7.60615 2.89852C8.0066 3.12492 8.38245 3.22266 8.64858 3.2687Z" fill="#00F7EF"/>
  <path d="M9.01967 4.01158V5.71112C8.72265 5.68211 8.3367 5.61463 7.90976 5.45824C7.35229 5.25392 6.93734 4.97455 6.66554 4.75824V8.19327L6.6586 8.18255C6.66302 8.25066 6.66554 8.32003 6.66554 8.39003C6.66554 10.0959 5.27753 11.4845 3.57105 11.4845C1.86457 11.4845 0.476562 10.0959 0.476562 8.39003C0.476562 6.68418 1.86457 5.29491 3.57105 5.29491C3.73817 5.29491 3.90213 5.30815 4.06231 5.33401V7.00895C3.90844 6.95409 3.74321 6.92445 3.57105 6.92445C2.76322 6.92445 2.10547 7.58156 2.10547 8.39003C2.10547 9.19849 2.76322 9.8556 3.57105 9.8556C4.37888 9.8556 5.03663 9.19786 5.03663 8.39003C5.03663 8.35976 5.036 8.32949 5.03411 8.29922V1.62402H6.73239C6.73869 1.76781 6.74437 1.91285 6.75068 2.05663C6.76203 2.33979 6.86292 2.61159 7.03887 2.8342C7.24508 3.09591 7.54968 3.39987 7.97724 3.64266C8.37769 3.86906 8.75355 3.9668 9.01967 4.01284V4.01158Z" fill="white"/>
</svg>