<svg xmlns="http://www.w3.org/2000/svg" width="18" height="19" viewBox="0 0 18 19" fill="none">
  <path d="M6.28125 9.50055L8.08875 11.3155L11.7112 7.68555" stroke="currentColor" stroke-width="1.125" stroke-linecap="round" stroke-linejoin="round"/>
  <path d="M8.05875 2.33773C8.57625 1.89523 9.42375 1.89523 9.94875 2.33773L11.1338 3.35773C11.3588 3.55273 11.7788 3.71023 12.0788 3.71023H13.3537C14.1487 3.71023 14.8013 4.36273 14.8013 5.15773V6.43273C14.8013 6.72523 14.9587 7.15273 15.1537 7.37773L16.1738 8.56273C16.6163 9.08023 16.6163 9.92773 16.1738 10.4527L15.1537 11.6377C14.9587 11.8627 14.8013 12.2827 14.8013 12.5827V13.8577C14.8013 14.6527 14.1487 15.3052 13.3537 15.3052H12.0788C11.7863 15.3052 11.3588 15.4627 11.1338 15.6577L9.94875 16.6777C9.43125 17.1202 8.58375 17.1202 8.05875 16.6777L6.87375 15.6577C6.64875 15.4627 6.22875 15.3052 5.92875 15.3052H4.63125C3.83625 15.3052 3.18375 14.6527 3.18375 13.8577V12.5752C3.18375 12.2827 3.02625 11.8627 2.83875 11.6377L1.82625 10.4452C1.39125 9.92773 1.39125 9.08773 1.82625 8.57023L2.83875 7.37773C3.02625 7.15273 3.18375 6.73273 3.18375 6.44023V5.15023C3.18375 4.35523 3.83625 3.70273 4.63125 3.70273H5.92875C6.22125 3.70273 6.64875 3.54523 6.87375 3.35023L8.05875 2.33773Z" stroke="currentColor" stroke-width="1.125" stroke-linecap="round" stroke-linejoin="round"/>
</svg>
