<svg xmlns="http://www.w3.org/2000/svg" width="18" height="19" viewBox="0 0 18 19" fill="none">
  <path d="M9 17C13.1421 17 16.5 13.6421 16.5 9.5C16.5 5.35786 13.1421 2 9 2C4.85786 2 1.5 5.35786 1.5 9.5C1.5 13.6421 4.85786 17 9 17Z" stroke="currentColor" stroke-width="1.125" stroke-linecap="round" stroke-linejoin="round"/>
  <path d="M5.99922 2.75H6.74922C5.28672 7.13 5.28672 11.87 6.74922 16.25H5.99922" stroke="currentColor" stroke-width="1.125" stroke-linecap="round" stroke-linejoin="round"/>
  <path d="M11.25 2.75C12.7125 7.13 12.7125 11.87 11.25 16.25" stroke="currentColor" stroke-width="1.125" stroke-linecap="round" stroke-linejoin="round"/>
  <path d="M2.25 12.5V11.75C6.63 13.2125 11.37 13.2125 15.75 11.75V12.5" stroke="currentColor" stroke-width="1.125" stroke-linecap="round" stroke-linejoin="round"/>
  <path d="M2.25 7.25117C6.63 5.78867 11.37 5.78867 15.75 7.25117" stroke="currentColor" stroke-width="1.125" stroke-linecap="round" stroke-linejoin="round"/>
</svg>
