<svg xmlns="http://www.w3.org/2000/svg" width="19" height="19" viewBox="0 0 19 19" fill="none">
  <path d="M9.68846 0.5H9.64747C4.68823 0.5 0.667969 4.52026 0.667969 9.4795V9.5205C0.667969 14.4797 4.68823 18.5 9.64747 18.5H9.68846C14.6477 18.5 18.668 14.4797 18.668 9.5205V9.4795C18.668 4.52026 14.6477 0.5 9.68846 0.5Z" fill="#4B5058"/>
  <svg x="4" y="4" width="12" height="11" viewBox="0 0 12 11" fill="none">
  <svg xmlns="http://www.w3.org/2000/svg" width="12" height="11" viewBox="0 0 12 11" fill="none">
    <path d="M0.318826 0.46875L4.46947 6.01827L0.292969 10.5304H1.2332L4.89009 6.58016L7.84447 10.5304H11.0435L6.65956 4.66873L10.5472 0.46875H9.60701L6.23957 4.10684L3.51852 0.46875H0.319449H0.318826ZM1.70111 1.16118H3.17042L9.65999 9.83798H8.19067L1.70111 1.16118Z" fill="white"/>
  </svg>
</svg>