<svg xmlns="http://www.w3.org/2000/svg" width="15" height="14" viewBox="0 0 15 14" fill="none">
  <path d="M4.44359 12.8334H10.5569C12.1669 12.8334 12.8086 11.8475 12.8844 10.6459L13.1878 5.82752C13.2694 4.56752 12.2661 3.50002 11.0003 3.50002C10.6444 3.50002 10.3178 3.29585 10.1544 2.98085L9.73443 2.13502C9.46609 1.60419 8.76609 1.16669 8.17109 1.16669H6.83526C6.23443 1.16669 5.53443 1.60419 5.26609 2.13502L4.84609 2.98085C4.68276 3.29585 4.35609 3.50002 4.00026 3.50002C2.73443 3.50002 1.73109 4.56752 1.81276 5.82752L2.11609 10.6459C2.18609 11.8475 2.83359 12.8334 4.44359 12.8334Z" stroke="currentColor" stroke-width="1.125" stroke-linecap="round" stroke-linejoin="round"/>
  <path d="M6.625 4.66669H8.375" stroke="currentColor" stroke-width="1.125" stroke-linecap="round" stroke-linejoin="round"/>
  <path d="M7.49984 10.5C8.544 10.5 9.39567 9.64831 9.39567 8.60415C9.39567 7.55998 8.544 6.70831 7.49984 6.70831C6.45567 6.70831 5.604 7.55998 5.604 8.60415C5.604 9.64831 6.45567 10.5 7.49984 10.5Z" stroke="currentColor" stroke-width="1.125" stroke-linecap="round" stroke-linejoin="round"/>
</svg>