<svg xmlns="http://www.w3.org/2000/svg" width="100%" height="100%" viewBox="0 0 18 18" fill="none">
  <path d="M9 1.3125C13.2404 1.3125 16.6875 4.75961 16.6875 9C16.6875 13.2404 13.2404 16.6875 9 16.6875C4.75961 16.6875 1.3125 13.2404 1.3125 9C1.3125 4.75961 4.75961 1.3125 9 1.3125ZM9 1.6875C4.96789 1.6875 1.6875 4.96789 1.6875 9C1.6875 13.0321 4.96789 16.3125 9 16.3125C13.0321 16.3125 16.3125 13.0321 16.3125 9C16.3125 4.96789 13.0321 1.6875 9 1.6875Z" fill="currentColor" stroke="currentColor" stroke-width="0.75"/>
  <path d="M14.0459 3.61621C14.117 3.54516 14.2395 3.54516 14.3105 3.61621C14.3724 3.67847 14.3797 3.77968 14.333 3.85156L14.3105 3.88086L3.81055 14.3809C3.77208 14.4193 3.72615 14.4355 3.67773 14.4355C3.64135 14.4355 3.60653 14.4263 3.5752 14.4053L3.5459 14.3809C3.48366 14.3186 3.47568 14.2166 3.52246 14.1445L3.5459 14.1162L14.0459 3.61621Z" fill="currentColor" stroke="currentColor" stroke-width="0.75"/>
</svg>
