<svg xmlns="http://www.w3.org/2000/svg" width="18" height="18" viewBox="0 0 18 18" fill="none">
  <path d="M8.31055 2.51364C8.68895 2.21432 9.2155 2.19585 9.6123 2.45798L9.68945 2.51364L9.69238 2.51657L10.6973 3.29587L10.7988 3.37497H13.4854C13.6954 3.37516 13.8602 3.54193 13.8604 3.74216V3.74509L13.875 5.58298L13.877 5.76462L14.0195 5.87595L14.9414 6.59567L14.9424 6.59665C15.2169 6.80956 15.375 7.13449 15.375 7.48532V16.3125H16.5C16.6004 16.3125 16.6875 16.3996 16.6875 16.5C16.6875 16.6004 16.6004 16.6875 16.5 16.6875H1.5C1.39961 16.6875 1.3125 16.6004 1.3125 16.5C1.31252 16.3996 1.39962 16.3125 1.5 16.3125H2.58594L2.58789 15.9394L2.625 7.47946V7.47751C2.625 7.17796 2.74541 6.89162 2.95996 6.68161L3.05762 6.59665V6.59567L8.30762 2.51657L8.31055 2.51364ZM8.25 12.375C7.42041 12.375 6.75002 13.0454 6.75 13.875V16.3125H11.25V13.875C11.25 13.0454 10.5796 12.375 9.75 12.375H8.25ZM5.625 7.31247C5.00541 7.31247 4.50002 7.81788 4.5 8.43747V9.56247C4.5 10.1821 5.00539 10.6875 5.625 10.6875H7.125C7.74461 10.6875 8.25 10.1821 8.25 9.56247V8.43747C8.24998 7.81788 7.74459 7.31247 7.125 7.31247H5.625ZM10.875 7.31247C10.2554 7.31247 9.75002 7.81788 9.75 8.43747V9.56247C9.75 10.1821 10.2554 10.6875 10.875 10.6875H12.375C12.9946 10.6875 13.5 10.1821 13.5 9.56247V8.43747C13.5 7.81788 12.9946 7.31247 12.375 7.31247H10.875Z" fill="currentColor" stroke="currentColor" stroke-width="0.75"/>
</svg>