<svg xmlns="http://www.w3.org/2000/svg" width="16" height="16" viewBox="0 0 16 16" fill="none">
  <path d="M7.66927 1.33594C4.17594 1.33594 1.33594 4.17594 1.33594 7.66927C1.33594 11.1626 4.17594 14.0026 7.66927 14.0026C11.1626 14.0026 14.0026 11.1626 14.0026 7.66927C14.0026 4.17594 11.1626 1.33594 7.66927 1.33594ZM7.66927 9.16927H5.66927C5.39594 9.16927 5.16927 8.9426 5.16927 8.66927C5.16927 8.39594 5.39594 8.16927 5.66927 8.16927H7.66927C7.9426 8.16927 8.16927 8.39594 8.16927 8.66927C8.16927 8.9426 7.9426 9.16927 7.66927 9.16927ZM9.66927 7.16927H5.66927C5.39594 7.16927 5.16927 6.9426 5.16927 6.66927C5.16927 6.39594 5.39594 6.16927 5.66927 6.16927H9.66927C9.9426 6.16927 10.1693 6.39594 10.1693 6.66927C10.1693 6.9426 9.9426 7.16927 9.66927 7.16927Z" fill="currentColor"/>
  <path d="M14.2017 14.6683C14.0817 14.6683 13.9617 14.6217 13.875 14.535L12.635 13.295C12.455 13.115 12.455 12.8217 12.635 12.635C12.815 12.455 13.1083 12.455 13.295 12.635L14.535 13.875C14.715 14.055 14.715 14.3483 14.535 14.535C14.4417 14.6217 14.3217 14.6683 14.2017 14.6683Z" fill="currentColor"/>
</svg>